<mxfile host="app.diagrams.net" agent="Mozilla/5.0 (Windows NT 10.0; Win64; x64) AppleWebKit/537.36 (KHTML, like Gecko) Chrome/136.0.0.0 Safari/537.36" version="27.0.5">
  <diagram name="Page-1" id="S0cK7dZVT9cCj5j7Iq81">
    <mxGraphModel dx="2732" dy="1492" grid="1" gridSize="10" guides="1" tooltips="1" connect="1" arrows="1" fold="1" page="1" pageScale="1" pageWidth="1100" pageHeight="1700" math="0" shadow="0">
      <root>
        <mxCell id="0" />
        <mxCell id="1" parent="0" />
        <mxCell id="BOQhzw1DH6TcYTrtDjCy-1" value="Semester" style="shape=table;startSize=30;container=1;collapsible=1;childLayout=tableLayout;fixedRows=1;rowLines=0;fontStyle=1;align=center;resizeLast=1;html=1;fontFamily=Lucida Console;fontSize=15;rounded=0;swimlaneLine=1;" vertex="1" parent="1">
          <mxGeometry x="550" y="80" width="250" height="150" as="geometry" />
        </mxCell>
        <mxCell id="BOQhzw1DH6TcYTrtDjCy-2" value="" style="shape=tableRow;horizontal=0;startSize=0;swimlaneHead=0;swimlaneBody=0;fillColor=none;collapsible=0;dropTarget=0;points=[[0,0.5],[1,0.5]];portConstraint=eastwest;top=0;left=0;right=0;bottom=1;fontFamily=Lucida Console;fontSize=15;align=center;" vertex="1" parent="BOQhzw1DH6TcYTrtDjCy-1">
          <mxGeometry y="30" width="250" height="30" as="geometry" />
        </mxCell>
        <mxCell id="BOQhzw1DH6TcYTrtDjCy-3" value="int" style="shape=partialRectangle;connectable=0;fillColor=none;top=0;left=0;bottom=0;right=0;fontStyle=1;overflow=hidden;whiteSpace=wrap;html=1;fontFamily=Lucida Console;fontSize=15;align=center;" vertex="1" parent="BOQhzw1DH6TcYTrtDjCy-2">
          <mxGeometry width="110" height="30" as="geometry">
            <mxRectangle width="110" height="30" as="alternateBounds" />
          </mxGeometry>
        </mxCell>
        <mxCell id="BOQhzw1DH6TcYTrtDjCy-4" value="id" style="shape=partialRectangle;connectable=0;fillColor=none;top=0;left=0;bottom=0;right=0;align=center;spacingLeft=6;fontStyle=5;overflow=hidden;whiteSpace=wrap;html=1;fontFamily=Lucida Console;fontSize=15;" vertex="1" parent="BOQhzw1DH6TcYTrtDjCy-2">
          <mxGeometry x="110" width="140" height="30" as="geometry">
            <mxRectangle width="140" height="30" as="alternateBounds" />
          </mxGeometry>
        </mxCell>
        <mxCell id="BOQhzw1DH6TcYTrtDjCy-5" value="" style="shape=tableRow;horizontal=0;startSize=0;swimlaneHead=0;swimlaneBody=0;fillColor=none;collapsible=0;dropTarget=0;points=[[0,0.5],[1,0.5]];portConstraint=eastwest;top=0;left=0;right=0;bottom=0;fontFamily=Lucida Console;fontSize=15;align=center;" vertex="1" parent="BOQhzw1DH6TcYTrtDjCy-1">
          <mxGeometry y="60" width="250" height="30" as="geometry" />
        </mxCell>
        <mxCell id="BOQhzw1DH6TcYTrtDjCy-6" value="&lt;b&gt;date&lt;/b&gt;" style="shape=partialRectangle;connectable=0;fillColor=none;top=0;left=0;bottom=0;right=0;editable=1;overflow=hidden;whiteSpace=wrap;html=1;fontFamily=Lucida Console;fontSize=15;align=center;" vertex="1" parent="BOQhzw1DH6TcYTrtDjCy-5">
          <mxGeometry width="110" height="30" as="geometry">
            <mxRectangle width="110" height="30" as="alternateBounds" />
          </mxGeometry>
        </mxCell>
        <mxCell id="BOQhzw1DH6TcYTrtDjCy-7" value="datestart" style="shape=partialRectangle;connectable=0;fillColor=none;top=0;left=0;bottom=0;right=0;align=center;spacingLeft=6;overflow=hidden;whiteSpace=wrap;html=1;fontFamily=Lucida Console;fontSize=15;" vertex="1" parent="BOQhzw1DH6TcYTrtDjCy-5">
          <mxGeometry x="110" width="140" height="30" as="geometry">
            <mxRectangle width="140" height="30" as="alternateBounds" />
          </mxGeometry>
        </mxCell>
        <mxCell id="BOQhzw1DH6TcYTrtDjCy-8" value="" style="shape=tableRow;horizontal=0;startSize=0;swimlaneHead=0;swimlaneBody=0;fillColor=none;collapsible=0;dropTarget=0;points=[[0,0.5],[1,0.5]];portConstraint=eastwest;top=0;left=0;right=0;bottom=0;fontFamily=Lucida Console;fontSize=15;align=center;" vertex="1" parent="BOQhzw1DH6TcYTrtDjCy-1">
          <mxGeometry y="90" width="250" height="30" as="geometry" />
        </mxCell>
        <mxCell id="BOQhzw1DH6TcYTrtDjCy-9" value="date" style="shape=partialRectangle;connectable=0;fillColor=none;top=0;left=0;bottom=0;right=0;editable=1;overflow=hidden;whiteSpace=wrap;html=1;fontStyle=1;fontFamily=Lucida Console;fontSize=15;align=center;" vertex="1" parent="BOQhzw1DH6TcYTrtDjCy-8">
          <mxGeometry width="110" height="30" as="geometry">
            <mxRectangle width="110" height="30" as="alternateBounds" />
          </mxGeometry>
        </mxCell>
        <mxCell id="BOQhzw1DH6TcYTrtDjCy-10" value="dateend" style="shape=partialRectangle;connectable=0;fillColor=none;top=0;left=0;bottom=0;right=0;align=center;spacingLeft=6;overflow=hidden;whiteSpace=wrap;html=1;fontFamily=Lucida Console;fontSize=15;" vertex="1" parent="BOQhzw1DH6TcYTrtDjCy-8">
          <mxGeometry x="110" width="140" height="30" as="geometry">
            <mxRectangle width="140" height="30" as="alternateBounds" />
          </mxGeometry>
        </mxCell>
        <mxCell id="BOQhzw1DH6TcYTrtDjCy-11" value="" style="shape=tableRow;horizontal=0;startSize=0;swimlaneHead=0;swimlaneBody=0;fillColor=none;collapsible=0;dropTarget=0;points=[[0,0.5],[1,0.5]];portConstraint=eastwest;top=0;left=0;right=0;bottom=0;fontFamily=Lucida Console;fontSize=15;align=center;" vertex="1" parent="BOQhzw1DH6TcYTrtDjCy-1">
          <mxGeometry y="120" width="250" height="30" as="geometry" />
        </mxCell>
        <mxCell id="BOQhzw1DH6TcYTrtDjCy-12" value="&lt;b&gt;varchar(50)&lt;/b&gt;" style="shape=partialRectangle;connectable=0;fillColor=none;top=0;left=0;bottom=0;right=0;editable=1;overflow=hidden;whiteSpace=wrap;html=1;fontFamily=Lucida Console;fontSize=15;align=center;" vertex="1" parent="BOQhzw1DH6TcYTrtDjCy-11">
          <mxGeometry width="110" height="30" as="geometry">
            <mxRectangle width="110" height="30" as="alternateBounds" />
          </mxGeometry>
        </mxCell>
        <mxCell id="BOQhzw1DH6TcYTrtDjCy-13" value="semname" style="shape=partialRectangle;connectable=0;fillColor=none;top=0;left=0;bottom=0;right=0;align=center;spacingLeft=6;overflow=hidden;whiteSpace=wrap;html=1;fontFamily=Lucida Console;fontSize=15;" vertex="1" parent="BOQhzw1DH6TcYTrtDjCy-11">
          <mxGeometry x="110" width="140" height="30" as="geometry">
            <mxRectangle width="140" height="30" as="alternateBounds" />
          </mxGeometry>
        </mxCell>
        <mxCell id="BOQhzw1DH6TcYTrtDjCy-83" value="RenewalDate" style="shape=table;startSize=30;container=1;collapsible=1;childLayout=tableLayout;fixedRows=1;rowLines=0;fontStyle=1;align=center;resizeLast=1;html=1;fontFamily=Lucida Console;fontSize=15;rounded=0;swimlaneLine=1;" vertex="1" parent="1">
          <mxGeometry x="560" y="450" width="230" height="150" as="geometry" />
        </mxCell>
        <mxCell id="BOQhzw1DH6TcYTrtDjCy-84" value="" style="shape=tableRow;horizontal=0;startSize=0;swimlaneHead=0;swimlaneBody=0;fillColor=none;collapsible=0;dropTarget=0;points=[[0,0.5],[1,0.5]];portConstraint=eastwest;top=0;left=0;right=0;bottom=1;fontFamily=Lucida Console;fontSize=15;align=center;" vertex="1" parent="BOQhzw1DH6TcYTrtDjCy-83">
          <mxGeometry y="30" width="230" height="30" as="geometry" />
        </mxCell>
        <mxCell id="BOQhzw1DH6TcYTrtDjCy-85" value="int" style="shape=partialRectangle;connectable=0;fillColor=none;top=0;left=0;bottom=0;right=0;fontStyle=1;overflow=hidden;whiteSpace=wrap;html=1;fontFamily=Lucida Console;fontSize=15;align=center;" vertex="1" parent="BOQhzw1DH6TcYTrtDjCy-84">
          <mxGeometry width="110" height="30" as="geometry">
            <mxRectangle width="110" height="30" as="alternateBounds" />
          </mxGeometry>
        </mxCell>
        <mxCell id="BOQhzw1DH6TcYTrtDjCy-86" value="id" style="shape=partialRectangle;connectable=0;fillColor=none;top=0;left=0;bottom=0;right=0;align=center;spacingLeft=6;fontStyle=5;overflow=hidden;whiteSpace=wrap;html=1;fontFamily=Lucida Console;fontSize=15;" vertex="1" parent="BOQhzw1DH6TcYTrtDjCy-84">
          <mxGeometry x="110" width="120" height="30" as="geometry">
            <mxRectangle width="120" height="30" as="alternateBounds" />
          </mxGeometry>
        </mxCell>
        <mxCell id="BOQhzw1DH6TcYTrtDjCy-87" value="" style="shape=tableRow;horizontal=0;startSize=0;swimlaneHead=0;swimlaneBody=0;fillColor=none;collapsible=0;dropTarget=0;points=[[0,0.5],[1,0.5]];portConstraint=eastwest;top=0;left=0;right=0;bottom=0;fontFamily=Lucida Console;fontSize=15;align=center;" vertex="1" parent="BOQhzw1DH6TcYTrtDjCy-83">
          <mxGeometry y="60" width="230" height="30" as="geometry" />
        </mxCell>
        <mxCell id="BOQhzw1DH6TcYTrtDjCy-88" value="&lt;b&gt;date&lt;/b&gt;" style="shape=partialRectangle;connectable=0;fillColor=none;top=0;left=0;bottom=0;right=0;editable=1;overflow=hidden;whiteSpace=wrap;html=1;fontFamily=Lucida Console;fontSize=15;align=center;" vertex="1" parent="BOQhzw1DH6TcYTrtDjCy-87">
          <mxGeometry width="110" height="30" as="geometry">
            <mxRectangle width="110" height="30" as="alternateBounds" />
          </mxGeometry>
        </mxCell>
        <mxCell id="BOQhzw1DH6TcYTrtDjCy-89" value="datestart" style="shape=partialRectangle;connectable=0;fillColor=none;top=0;left=0;bottom=0;right=0;align=center;spacingLeft=6;overflow=hidden;whiteSpace=wrap;html=1;fontFamily=Lucida Console;fontSize=15;" vertex="1" parent="BOQhzw1DH6TcYTrtDjCy-87">
          <mxGeometry x="110" width="120" height="30" as="geometry">
            <mxRectangle width="120" height="30" as="alternateBounds" />
          </mxGeometry>
        </mxCell>
        <mxCell id="BOQhzw1DH6TcYTrtDjCy-90" value="" style="shape=tableRow;horizontal=0;startSize=0;swimlaneHead=0;swimlaneBody=0;fillColor=none;collapsible=0;dropTarget=0;points=[[0,0.5],[1,0.5]];portConstraint=eastwest;top=0;left=0;right=0;bottom=0;fontFamily=Lucida Console;fontSize=15;align=center;" vertex="1" parent="BOQhzw1DH6TcYTrtDjCy-83">
          <mxGeometry y="90" width="230" height="30" as="geometry" />
        </mxCell>
        <mxCell id="BOQhzw1DH6TcYTrtDjCy-91" value="date" style="shape=partialRectangle;connectable=0;fillColor=none;top=0;left=0;bottom=0;right=0;editable=1;overflow=hidden;whiteSpace=wrap;html=1;fontStyle=1;fontFamily=Lucida Console;fontSize=15;align=center;" vertex="1" parent="BOQhzw1DH6TcYTrtDjCy-90">
          <mxGeometry width="110" height="30" as="geometry">
            <mxRectangle width="110" height="30" as="alternateBounds" />
          </mxGeometry>
        </mxCell>
        <mxCell id="BOQhzw1DH6TcYTrtDjCy-92" value="dateend" style="shape=partialRectangle;connectable=0;fillColor=none;top=0;left=0;bottom=0;right=0;align=center;spacingLeft=6;overflow=hidden;whiteSpace=wrap;html=1;fontFamily=Lucida Console;fontSize=15;" vertex="1" parent="BOQhzw1DH6TcYTrtDjCy-90">
          <mxGeometry x="110" width="120" height="30" as="geometry">
            <mxRectangle width="120" height="30" as="alternateBounds" />
          </mxGeometry>
        </mxCell>
        <mxCell id="BOQhzw1DH6TcYTrtDjCy-93" value="" style="shape=tableRow;horizontal=0;startSize=0;swimlaneHead=0;swimlaneBody=0;fillColor=none;collapsible=0;dropTarget=0;points=[[0,0.5],[1,0.5]];portConstraint=eastwest;top=0;left=0;right=0;bottom=0;fontFamily=Lucida Console;fontSize=15;align=center;" vertex="1" parent="BOQhzw1DH6TcYTrtDjCy-83">
          <mxGeometry y="120" width="230" height="30" as="geometry" />
        </mxCell>
        <mxCell id="BOQhzw1DH6TcYTrtDjCy-94" value="&lt;b&gt;int&lt;/b&gt;" style="shape=partialRectangle;connectable=0;fillColor=none;top=0;left=0;bottom=0;right=0;editable=1;overflow=hidden;whiteSpace=wrap;html=1;fontFamily=Lucida Console;fontSize=15;align=center;" vertex="1" parent="BOQhzw1DH6TcYTrtDjCy-93">
          <mxGeometry width="110" height="30" as="geometry">
            <mxRectangle width="110" height="30" as="alternateBounds" />
          </mxGeometry>
        </mxCell>
        <mxCell id="BOQhzw1DH6TcYTrtDjCy-95" value="sem_id" style="shape=partialRectangle;connectable=0;fillColor=none;top=0;left=0;bottom=0;right=0;align=center;spacingLeft=6;overflow=hidden;whiteSpace=wrap;html=1;fontFamily=Lucida Console;fontSize=15;" vertex="1" parent="BOQhzw1DH6TcYTrtDjCy-93">
          <mxGeometry x="110" width="120" height="30" as="geometry">
            <mxRectangle width="120" height="30" as="alternateBounds" />
          </mxGeometry>
        </mxCell>
        <mxCell id="BOQhzw1DH6TcYTrtDjCy-96" value="ApplicationDate" style="shape=table;startSize=30;container=1;collapsible=1;childLayout=tableLayout;fixedRows=1;rowLines=0;fontStyle=1;align=center;resizeLast=1;html=1;fontFamily=Lucida Console;fontSize=15;rounded=0;swimlaneLine=1;" vertex="1" parent="1">
          <mxGeometry x="820" y="240" width="230" height="150" as="geometry" />
        </mxCell>
        <mxCell id="BOQhzw1DH6TcYTrtDjCy-97" value="" style="shape=tableRow;horizontal=0;startSize=0;swimlaneHead=0;swimlaneBody=0;fillColor=none;collapsible=0;dropTarget=0;points=[[0,0.5],[1,0.5]];portConstraint=eastwest;top=0;left=0;right=0;bottom=1;fontFamily=Lucida Console;fontSize=15;align=center;" vertex="1" parent="BOQhzw1DH6TcYTrtDjCy-96">
          <mxGeometry y="30" width="230" height="30" as="geometry" />
        </mxCell>
        <mxCell id="BOQhzw1DH6TcYTrtDjCy-98" value="int" style="shape=partialRectangle;connectable=0;fillColor=none;top=0;left=0;bottom=0;right=0;fontStyle=1;overflow=hidden;whiteSpace=wrap;html=1;fontFamily=Lucida Console;fontSize=15;align=center;" vertex="1" parent="BOQhzw1DH6TcYTrtDjCy-97">
          <mxGeometry width="110" height="30" as="geometry">
            <mxRectangle width="110" height="30" as="alternateBounds" />
          </mxGeometry>
        </mxCell>
        <mxCell id="BOQhzw1DH6TcYTrtDjCy-99" value="id" style="shape=partialRectangle;connectable=0;fillColor=none;top=0;left=0;bottom=0;right=0;align=center;spacingLeft=6;fontStyle=5;overflow=hidden;whiteSpace=wrap;html=1;fontFamily=Lucida Console;fontSize=15;" vertex="1" parent="BOQhzw1DH6TcYTrtDjCy-97">
          <mxGeometry x="110" width="120" height="30" as="geometry">
            <mxRectangle width="120" height="30" as="alternateBounds" />
          </mxGeometry>
        </mxCell>
        <mxCell id="BOQhzw1DH6TcYTrtDjCy-100" value="" style="shape=tableRow;horizontal=0;startSize=0;swimlaneHead=0;swimlaneBody=0;fillColor=none;collapsible=0;dropTarget=0;points=[[0,0.5],[1,0.5]];portConstraint=eastwest;top=0;left=0;right=0;bottom=0;fontFamily=Lucida Console;fontSize=15;align=center;" vertex="1" parent="BOQhzw1DH6TcYTrtDjCy-96">
          <mxGeometry y="60" width="230" height="30" as="geometry" />
        </mxCell>
        <mxCell id="BOQhzw1DH6TcYTrtDjCy-101" value="&lt;b&gt;date&lt;/b&gt;" style="shape=partialRectangle;connectable=0;fillColor=none;top=0;left=0;bottom=0;right=0;editable=1;overflow=hidden;whiteSpace=wrap;html=1;fontFamily=Lucida Console;fontSize=15;align=center;" vertex="1" parent="BOQhzw1DH6TcYTrtDjCy-100">
          <mxGeometry width="110" height="30" as="geometry">
            <mxRectangle width="110" height="30" as="alternateBounds" />
          </mxGeometry>
        </mxCell>
        <mxCell id="BOQhzw1DH6TcYTrtDjCy-102" value="datestart" style="shape=partialRectangle;connectable=0;fillColor=none;top=0;left=0;bottom=0;right=0;align=center;spacingLeft=6;overflow=hidden;whiteSpace=wrap;html=1;fontFamily=Lucida Console;fontSize=15;" vertex="1" parent="BOQhzw1DH6TcYTrtDjCy-100">
          <mxGeometry x="110" width="120" height="30" as="geometry">
            <mxRectangle width="120" height="30" as="alternateBounds" />
          </mxGeometry>
        </mxCell>
        <mxCell id="BOQhzw1DH6TcYTrtDjCy-103" value="" style="shape=tableRow;horizontal=0;startSize=0;swimlaneHead=0;swimlaneBody=0;fillColor=none;collapsible=0;dropTarget=0;points=[[0,0.5],[1,0.5]];portConstraint=eastwest;top=0;left=0;right=0;bottom=0;fontFamily=Lucida Console;fontSize=15;align=center;" vertex="1" parent="BOQhzw1DH6TcYTrtDjCy-96">
          <mxGeometry y="90" width="230" height="30" as="geometry" />
        </mxCell>
        <mxCell id="BOQhzw1DH6TcYTrtDjCy-104" value="date" style="shape=partialRectangle;connectable=0;fillColor=none;top=0;left=0;bottom=0;right=0;editable=1;overflow=hidden;whiteSpace=wrap;html=1;fontStyle=1;fontFamily=Lucida Console;fontSize=15;align=center;" vertex="1" parent="BOQhzw1DH6TcYTrtDjCy-103">
          <mxGeometry width="110" height="30" as="geometry">
            <mxRectangle width="110" height="30" as="alternateBounds" />
          </mxGeometry>
        </mxCell>
        <mxCell id="BOQhzw1DH6TcYTrtDjCy-105" value="dateend" style="shape=partialRectangle;connectable=0;fillColor=none;top=0;left=0;bottom=0;right=0;align=center;spacingLeft=6;overflow=hidden;whiteSpace=wrap;html=1;fontFamily=Lucida Console;fontSize=15;" vertex="1" parent="BOQhzw1DH6TcYTrtDjCy-103">
          <mxGeometry x="110" width="120" height="30" as="geometry">
            <mxRectangle width="120" height="30" as="alternateBounds" />
          </mxGeometry>
        </mxCell>
        <mxCell id="BOQhzw1DH6TcYTrtDjCy-106" value="" style="shape=tableRow;horizontal=0;startSize=0;swimlaneHead=0;swimlaneBody=0;fillColor=none;collapsible=0;dropTarget=0;points=[[0,0.5],[1,0.5]];portConstraint=eastwest;top=0;left=0;right=0;bottom=0;fontFamily=Lucida Console;fontSize=15;align=center;" vertex="1" parent="BOQhzw1DH6TcYTrtDjCy-96">
          <mxGeometry y="120" width="230" height="30" as="geometry" />
        </mxCell>
        <mxCell id="BOQhzw1DH6TcYTrtDjCy-107" value="&lt;b&gt;int&lt;/b&gt;" style="shape=partialRectangle;connectable=0;fillColor=none;top=0;left=0;bottom=0;right=0;editable=1;overflow=hidden;whiteSpace=wrap;html=1;fontFamily=Lucida Console;fontSize=15;align=center;" vertex="1" parent="BOQhzw1DH6TcYTrtDjCy-106">
          <mxGeometry width="110" height="30" as="geometry">
            <mxRectangle width="110" height="30" as="alternateBounds" />
          </mxGeometry>
        </mxCell>
        <mxCell id="BOQhzw1DH6TcYTrtDjCy-108" value="sen_id" style="shape=partialRectangle;connectable=0;fillColor=none;top=0;left=0;bottom=0;right=0;align=center;spacingLeft=6;overflow=hidden;whiteSpace=wrap;html=1;fontFamily=Lucida Console;fontSize=15;" vertex="1" parent="BOQhzw1DH6TcYTrtDjCy-106">
          <mxGeometry x="110" width="120" height="30" as="geometry">
            <mxRectangle width="120" height="30" as="alternateBounds" />
          </mxGeometry>
        </mxCell>
        <mxCell id="BOQhzw1DH6TcYTrtDjCy-109" value="ScholarSlotLimit" style="shape=table;startSize=30;container=1;collapsible=1;childLayout=tableLayout;fixedRows=1;rowLines=0;fontStyle=1;align=center;resizeLast=1;html=1;fontFamily=Lucida Console;fontSize=15;rounded=0;swimlaneLine=1;" vertex="1" parent="1">
          <mxGeometry x="300" y="240" width="230" height="130" as="geometry" />
        </mxCell>
        <mxCell id="BOQhzw1DH6TcYTrtDjCy-110" value="" style="shape=tableRow;horizontal=0;startSize=0;swimlaneHead=0;swimlaneBody=0;fillColor=none;collapsible=0;dropTarget=0;points=[[0,0.5],[1,0.5]];portConstraint=eastwest;top=0;left=0;right=0;bottom=1;fontFamily=Lucida Console;fontSize=15;align=center;" vertex="1" parent="BOQhzw1DH6TcYTrtDjCy-109">
          <mxGeometry y="30" width="230" height="30" as="geometry" />
        </mxCell>
        <mxCell id="BOQhzw1DH6TcYTrtDjCy-111" value="int" style="shape=partialRectangle;connectable=0;fillColor=none;top=0;left=0;bottom=0;right=0;fontStyle=1;overflow=hidden;whiteSpace=wrap;html=1;fontFamily=Lucida Console;fontSize=15;align=center;" vertex="1" parent="BOQhzw1DH6TcYTrtDjCy-110">
          <mxGeometry width="110" height="30" as="geometry">
            <mxRectangle width="110" height="30" as="alternateBounds" />
          </mxGeometry>
        </mxCell>
        <mxCell id="BOQhzw1DH6TcYTrtDjCy-112" value="id" style="shape=partialRectangle;connectable=0;fillColor=none;top=0;left=0;bottom=0;right=0;align=center;spacingLeft=6;fontStyle=5;overflow=hidden;whiteSpace=wrap;html=1;fontFamily=Lucida Console;fontSize=15;" vertex="1" parent="BOQhzw1DH6TcYTrtDjCy-110">
          <mxGeometry x="110" width="120" height="30" as="geometry">
            <mxRectangle width="120" height="30" as="alternateBounds" />
          </mxGeometry>
        </mxCell>
        <mxCell id="BOQhzw1DH6TcYTrtDjCy-113" value="" style="shape=tableRow;horizontal=0;startSize=0;swimlaneHead=0;swimlaneBody=0;fillColor=none;collapsible=0;dropTarget=0;points=[[0,0.5],[1,0.5]];portConstraint=eastwest;top=0;left=0;right=0;bottom=0;fontFamily=Lucida Console;fontSize=15;align=center;" vertex="1" parent="BOQhzw1DH6TcYTrtDjCy-109">
          <mxGeometry y="60" width="230" height="30" as="geometry" />
        </mxCell>
        <mxCell id="BOQhzw1DH6TcYTrtDjCy-114" value="&lt;b&gt;int&lt;/b&gt;" style="shape=partialRectangle;connectable=0;fillColor=none;top=0;left=0;bottom=0;right=0;editable=1;overflow=hidden;whiteSpace=wrap;html=1;fontFamily=Lucida Console;fontSize=15;align=center;" vertex="1" parent="BOQhzw1DH6TcYTrtDjCy-113">
          <mxGeometry width="110" height="30" as="geometry">
            <mxRectangle width="110" height="30" as="alternateBounds" />
          </mxGeometry>
        </mxCell>
        <mxCell id="BOQhzw1DH6TcYTrtDjCy-115" value="sem_id" style="shape=partialRectangle;connectable=0;fillColor=none;top=0;left=0;bottom=0;right=0;align=center;spacingLeft=6;overflow=hidden;whiteSpace=wrap;html=1;fontFamily=Lucida Console;fontSize=15;" vertex="1" parent="BOQhzw1DH6TcYTrtDjCy-113">
          <mxGeometry x="110" width="120" height="30" as="geometry">
            <mxRectangle width="120" height="30" as="alternateBounds" />
          </mxGeometry>
        </mxCell>
        <mxCell id="BOQhzw1DH6TcYTrtDjCy-116" value="" style="shape=tableRow;horizontal=0;startSize=0;swimlaneHead=0;swimlaneBody=0;fillColor=none;collapsible=0;dropTarget=0;points=[[0,0.5],[1,0.5]];portConstraint=eastwest;top=0;left=0;right=0;bottom=0;fontFamily=Lucida Console;fontSize=15;align=center;" vertex="1" parent="BOQhzw1DH6TcYTrtDjCy-109">
          <mxGeometry y="90" width="230" height="40" as="geometry" />
        </mxCell>
        <mxCell id="BOQhzw1DH6TcYTrtDjCy-117" value="int" style="shape=partialRectangle;connectable=0;fillColor=none;top=0;left=0;bottom=0;right=0;editable=1;overflow=hidden;whiteSpace=wrap;html=1;fontStyle=1;fontFamily=Lucida Console;fontSize=15;align=center;" vertex="1" parent="BOQhzw1DH6TcYTrtDjCy-116">
          <mxGeometry width="110" height="40" as="geometry">
            <mxRectangle width="110" height="40" as="alternateBounds" />
          </mxGeometry>
        </mxCell>
        <mxCell id="BOQhzw1DH6TcYTrtDjCy-118" value="limit_count" style="shape=partialRectangle;connectable=0;fillColor=none;top=0;left=0;bottom=0;right=0;align=center;spacingLeft=6;overflow=hidden;whiteSpace=wrap;html=1;fontFamily=Lucida Console;fontSize=15;" vertex="1" parent="BOQhzw1DH6TcYTrtDjCy-116">
          <mxGeometry x="110" width="120" height="40" as="geometry">
            <mxRectangle width="120" height="40" as="alternateBounds" />
          </mxGeometry>
        </mxCell>
        <mxCell id="BOQhzw1DH6TcYTrtDjCy-127" style="edgeStyle=orthogonalEdgeStyle;rounded=0;orthogonalLoop=1;jettySize=auto;html=1;startArrow=ERzeroToMany;startFill=0;endArrow=ERmandOne;endFill=0;endSize=15;startSize=15;" edge="1" parent="1">
          <mxGeometry relative="1" as="geometry">
            <mxPoint x="930" y="240" as="sourcePoint" />
            <mxPoint x="800" y="190" as="targetPoint" />
            <Array as="points">
              <mxPoint x="930" y="190" />
            </Array>
          </mxGeometry>
        </mxCell>
        <mxCell id="BOQhzw1DH6TcYTrtDjCy-128" style="edgeStyle=orthogonalEdgeStyle;rounded=0;orthogonalLoop=1;jettySize=auto;html=1;startArrow=ERzeroToMany;startFill=0;endArrow=ERmandOne;endFill=0;endSize=15;startSize=15;" edge="1" parent="1">
          <mxGeometry relative="1" as="geometry">
            <mxPoint x="670" y="450" as="sourcePoint" />
            <mxPoint x="670" y="240" as="targetPoint" />
            <Array as="points">
              <mxPoint x="670" y="290" />
              <mxPoint x="670" y="290" />
            </Array>
          </mxGeometry>
        </mxCell>
        <mxCell id="BOQhzw1DH6TcYTrtDjCy-129" style="edgeStyle=orthogonalEdgeStyle;rounded=0;orthogonalLoop=1;jettySize=auto;html=1;startArrow=ERzeroToMany;startFill=0;endArrow=ERmandOne;endFill=0;endSize=15;startSize=15;" edge="1" parent="1">
          <mxGeometry relative="1" as="geometry">
            <mxPoint x="410" y="240" as="sourcePoint" />
            <mxPoint x="550" y="190" as="targetPoint" />
            <Array as="points">
              <mxPoint x="410" y="190" />
            </Array>
          </mxGeometry>
        </mxCell>
        <mxCell id="BOQhzw1DH6TcYTrtDjCy-130" value="Roles" style="shape=table;startSize=30;container=1;collapsible=1;childLayout=tableLayout;fixedRows=1;rowLines=0;fontStyle=1;align=center;resizeLast=1;html=1;fontFamily=Lucida Console;fontSize=15;rounded=0;swimlaneLine=1;" vertex="1" parent="1">
          <mxGeometry x="190" y="460" width="240" height="90" as="geometry" />
        </mxCell>
        <mxCell id="BOQhzw1DH6TcYTrtDjCy-131" value="" style="shape=tableRow;horizontal=0;startSize=0;swimlaneHead=0;swimlaneBody=0;fillColor=none;collapsible=0;dropTarget=0;points=[[0,0.5],[1,0.5]];portConstraint=eastwest;top=0;left=0;right=0;bottom=1;fontFamily=Lucida Console;fontSize=15;align=center;" vertex="1" parent="BOQhzw1DH6TcYTrtDjCy-130">
          <mxGeometry y="30" width="240" height="30" as="geometry" />
        </mxCell>
        <mxCell id="BOQhzw1DH6TcYTrtDjCy-132" value="int" style="shape=partialRectangle;connectable=0;fillColor=none;top=0;left=0;bottom=0;right=0;fontStyle=1;overflow=hidden;whiteSpace=wrap;html=1;fontFamily=Lucida Console;fontSize=15;align=center;" vertex="1" parent="BOQhzw1DH6TcYTrtDjCy-131">
          <mxGeometry width="120" height="30" as="geometry">
            <mxRectangle width="120" height="30" as="alternateBounds" />
          </mxGeometry>
        </mxCell>
        <mxCell id="BOQhzw1DH6TcYTrtDjCy-133" value="id" style="shape=partialRectangle;connectable=0;fillColor=none;top=0;left=0;bottom=0;right=0;align=center;spacingLeft=6;fontStyle=5;overflow=hidden;whiteSpace=wrap;html=1;fontFamily=Lucida Console;fontSize=15;" vertex="1" parent="BOQhzw1DH6TcYTrtDjCy-131">
          <mxGeometry x="120" width="120" height="30" as="geometry">
            <mxRectangle width="120" height="30" as="alternateBounds" />
          </mxGeometry>
        </mxCell>
        <mxCell id="BOQhzw1DH6TcYTrtDjCy-140" value="" style="shape=tableRow;horizontal=0;startSize=0;swimlaneHead=0;swimlaneBody=0;fillColor=none;collapsible=0;dropTarget=0;points=[[0,0.5],[1,0.5]];portConstraint=eastwest;top=0;left=0;right=0;bottom=0;fontFamily=Lucida Console;fontSize=15;align=center;" vertex="1" parent="BOQhzw1DH6TcYTrtDjCy-130">
          <mxGeometry y="60" width="240" height="30" as="geometry" />
        </mxCell>
        <mxCell id="BOQhzw1DH6TcYTrtDjCy-141" value="&lt;b&gt;varchar(50)&lt;/b&gt;" style="shape=partialRectangle;connectable=0;fillColor=none;top=0;left=0;bottom=0;right=0;editable=1;overflow=hidden;whiteSpace=wrap;html=1;fontFamily=Lucida Console;fontSize=15;align=center;" vertex="1" parent="BOQhzw1DH6TcYTrtDjCy-140">
          <mxGeometry width="120" height="30" as="geometry">
            <mxRectangle width="120" height="30" as="alternateBounds" />
          </mxGeometry>
        </mxCell>
        <mxCell id="BOQhzw1DH6TcYTrtDjCy-142" value="role" style="shape=partialRectangle;connectable=0;fillColor=none;top=0;left=0;bottom=0;right=0;align=center;spacingLeft=6;overflow=hidden;whiteSpace=wrap;html=1;fontFamily=Lucida Console;fontSize=15;" vertex="1" parent="BOQhzw1DH6TcYTrtDjCy-140">
          <mxGeometry x="120" width="120" height="30" as="geometry">
            <mxRectangle width="120" height="30" as="alternateBounds" />
          </mxGeometry>
        </mxCell>
        <mxCell id="BOQhzw1DH6TcYTrtDjCy-143" value="ScholarAdmin" style="shape=table;startSize=30;container=1;collapsible=1;childLayout=tableLayout;fixedRows=1;rowLines=0;fontStyle=1;align=center;resizeLast=1;html=1;fontFamily=Lucida Console;fontSize=15;rounded=0;swimlaneLine=1;" vertex="1" parent="1">
          <mxGeometry x="510" y="760" width="320" height="330" as="geometry" />
        </mxCell>
        <mxCell id="BOQhzw1DH6TcYTrtDjCy-144" value="" style="shape=tableRow;horizontal=0;startSize=0;swimlaneHead=0;swimlaneBody=0;fillColor=none;collapsible=0;dropTarget=0;points=[[0,0.5],[1,0.5]];portConstraint=eastwest;top=0;left=0;right=0;bottom=1;fontFamily=Lucida Console;fontSize=15;align=center;" vertex="1" parent="BOQhzw1DH6TcYTrtDjCy-143">
          <mxGeometry y="30" width="320" height="30" as="geometry" />
        </mxCell>
        <mxCell id="BOQhzw1DH6TcYTrtDjCy-145" value="int" style="shape=partialRectangle;connectable=0;fillColor=none;top=0;left=0;bottom=0;right=0;fontStyle=1;overflow=hidden;whiteSpace=wrap;html=1;fontFamily=Lucida Console;fontSize=15;align=center;" vertex="1" parent="BOQhzw1DH6TcYTrtDjCy-144">
          <mxGeometry width="160" height="30" as="geometry">
            <mxRectangle width="160" height="30" as="alternateBounds" />
          </mxGeometry>
        </mxCell>
        <mxCell id="BOQhzw1DH6TcYTrtDjCy-146" value="id" style="shape=partialRectangle;connectable=0;fillColor=none;top=0;left=0;bottom=0;right=0;align=center;spacingLeft=6;fontStyle=5;overflow=hidden;whiteSpace=wrap;html=1;fontFamily=Lucida Console;fontSize=15;" vertex="1" parent="BOQhzw1DH6TcYTrtDjCy-144">
          <mxGeometry x="160" width="160" height="30" as="geometry">
            <mxRectangle width="160" height="30" as="alternateBounds" />
          </mxGeometry>
        </mxCell>
        <mxCell id="BOQhzw1DH6TcYTrtDjCy-147" value="" style="shape=tableRow;horizontal=0;startSize=0;swimlaneHead=0;swimlaneBody=0;fillColor=none;collapsible=0;dropTarget=0;points=[[0,0.5],[1,0.5]];portConstraint=eastwest;top=0;left=0;right=0;bottom=0;fontFamily=Lucida Console;fontSize=15;align=center;" vertex="1" parent="BOQhzw1DH6TcYTrtDjCy-143">
          <mxGeometry y="60" width="320" height="30" as="geometry" />
        </mxCell>
        <mxCell id="BOQhzw1DH6TcYTrtDjCy-148" value="&lt;b&gt;varchar(50)&lt;/b&gt;" style="shape=partialRectangle;connectable=0;fillColor=none;top=0;left=0;bottom=0;right=0;editable=1;overflow=hidden;whiteSpace=wrap;html=1;fontFamily=Lucida Console;fontSize=15;align=center;" vertex="1" parent="BOQhzw1DH6TcYTrtDjCy-147">
          <mxGeometry width="160" height="30" as="geometry">
            <mxRectangle width="160" height="30" as="alternateBounds" />
          </mxGeometry>
        </mxCell>
        <mxCell id="BOQhzw1DH6TcYTrtDjCy-149" value="surname" style="shape=partialRectangle;connectable=0;fillColor=none;top=0;left=0;bottom=0;right=0;align=center;spacingLeft=6;overflow=hidden;whiteSpace=wrap;html=1;fontFamily=Lucida Console;fontSize=15;" vertex="1" parent="BOQhzw1DH6TcYTrtDjCy-147">
          <mxGeometry x="160" width="160" height="30" as="geometry">
            <mxRectangle width="160" height="30" as="alternateBounds" />
          </mxGeometry>
        </mxCell>
        <mxCell id="BOQhzw1DH6TcYTrtDjCy-150" value="" style="shape=tableRow;horizontal=0;startSize=0;swimlaneHead=0;swimlaneBody=0;fillColor=none;collapsible=0;dropTarget=0;points=[[0,0.5],[1,0.5]];portConstraint=eastwest;top=0;left=0;right=0;bottom=0;fontFamily=Lucida Console;fontSize=15;align=center;" vertex="1" parent="BOQhzw1DH6TcYTrtDjCy-143">
          <mxGeometry y="90" width="320" height="30" as="geometry" />
        </mxCell>
        <mxCell id="BOQhzw1DH6TcYTrtDjCy-151" value="&lt;b&gt;varchar(50)&lt;/b&gt;" style="shape=partialRectangle;connectable=0;fillColor=none;top=0;left=0;bottom=0;right=0;editable=1;overflow=hidden;whiteSpace=wrap;html=1;fontStyle=1;fontFamily=Lucida Console;fontSize=15;align=center;" vertex="1" parent="BOQhzw1DH6TcYTrtDjCy-150">
          <mxGeometry width="160" height="30" as="geometry">
            <mxRectangle width="160" height="30" as="alternateBounds" />
          </mxGeometry>
        </mxCell>
        <mxCell id="BOQhzw1DH6TcYTrtDjCy-152" value="firstname" style="shape=partialRectangle;connectable=0;fillColor=none;top=0;left=0;bottom=0;right=0;align=center;spacingLeft=6;overflow=hidden;whiteSpace=wrap;html=1;fontFamily=Lucida Console;fontSize=15;" vertex="1" parent="BOQhzw1DH6TcYTrtDjCy-150">
          <mxGeometry x="160" width="160" height="30" as="geometry">
            <mxRectangle width="160" height="30" as="alternateBounds" />
          </mxGeometry>
        </mxCell>
        <mxCell id="BOQhzw1DH6TcYTrtDjCy-153" value="" style="shape=tableRow;horizontal=0;startSize=0;swimlaneHead=0;swimlaneBody=0;fillColor=none;collapsible=0;dropTarget=0;points=[[0,0.5],[1,0.5]];portConstraint=eastwest;top=0;left=0;right=0;bottom=0;fontFamily=Lucida Console;fontSize=15;align=center;" vertex="1" parent="BOQhzw1DH6TcYTrtDjCy-143">
          <mxGeometry y="120" width="320" height="30" as="geometry" />
        </mxCell>
        <mxCell id="BOQhzw1DH6TcYTrtDjCy-154" value="&lt;b&gt;varchar(50)&lt;/b&gt;" style="shape=partialRectangle;connectable=0;fillColor=none;top=0;left=0;bottom=0;right=0;editable=1;overflow=hidden;whiteSpace=wrap;html=1;fontFamily=Lucida Console;fontSize=15;align=center;" vertex="1" parent="BOQhzw1DH6TcYTrtDjCy-153">
          <mxGeometry width="160" height="30" as="geometry">
            <mxRectangle width="160" height="30" as="alternateBounds" />
          </mxGeometry>
        </mxCell>
        <mxCell id="BOQhzw1DH6TcYTrtDjCy-155" value="email" style="shape=partialRectangle;connectable=0;fillColor=none;top=0;left=0;bottom=0;right=0;align=center;spacingLeft=6;overflow=hidden;whiteSpace=wrap;html=1;fontFamily=Lucida Console;fontSize=15;" vertex="1" parent="BOQhzw1DH6TcYTrtDjCy-153">
          <mxGeometry x="160" width="160" height="30" as="geometry">
            <mxRectangle width="160" height="30" as="alternateBounds" />
          </mxGeometry>
        </mxCell>
        <mxCell id="BOQhzw1DH6TcYTrtDjCy-156" value="" style="shape=tableRow;horizontal=0;startSize=0;swimlaneHead=0;swimlaneBody=0;fillColor=none;collapsible=0;dropTarget=0;points=[[0,0.5],[1,0.5]];portConstraint=eastwest;top=0;left=0;right=0;bottom=0;fontFamily=Lucida Console;fontSize=15;align=center;" vertex="1" parent="BOQhzw1DH6TcYTrtDjCy-143">
          <mxGeometry y="150" width="320" height="30" as="geometry" />
        </mxCell>
        <mxCell id="BOQhzw1DH6TcYTrtDjCy-157" value="&lt;b&gt;varchar(20)&lt;/b&gt;" style="shape=partialRectangle;connectable=0;fillColor=none;top=0;left=0;bottom=0;right=0;editable=1;overflow=hidden;whiteSpace=wrap;html=1;fontFamily=Lucida Console;fontSize=15;align=center;" vertex="1" parent="BOQhzw1DH6TcYTrtDjCy-156">
          <mxGeometry width="160" height="30" as="geometry">
            <mxRectangle width="160" height="30" as="alternateBounds" />
          </mxGeometry>
        </mxCell>
        <mxCell id="BOQhzw1DH6TcYTrtDjCy-158" value="username" style="shape=partialRectangle;connectable=0;fillColor=none;top=0;left=0;bottom=0;right=0;align=center;spacingLeft=6;overflow=hidden;whiteSpace=wrap;html=1;fontFamily=Lucida Console;fontSize=15;" vertex="1" parent="BOQhzw1DH6TcYTrtDjCy-156">
          <mxGeometry x="160" width="160" height="30" as="geometry">
            <mxRectangle width="160" height="30" as="alternateBounds" />
          </mxGeometry>
        </mxCell>
        <mxCell id="BOQhzw1DH6TcYTrtDjCy-159" value="" style="shape=tableRow;horizontal=0;startSize=0;swimlaneHead=0;swimlaneBody=0;fillColor=none;collapsible=0;dropTarget=0;points=[[0,0.5],[1,0.5]];portConstraint=eastwest;top=0;left=0;right=0;bottom=0;fontFamily=Lucida Console;fontSize=15;align=center;" vertex="1" parent="BOQhzw1DH6TcYTrtDjCy-143">
          <mxGeometry y="180" width="320" height="30" as="geometry" />
        </mxCell>
        <mxCell id="BOQhzw1DH6TcYTrtDjCy-160" value="&lt;b&gt;varchar(255)&lt;/b&gt;" style="shape=partialRectangle;connectable=0;fillColor=none;top=0;left=0;bottom=0;right=0;editable=1;overflow=hidden;whiteSpace=wrap;html=1;fontFamily=Lucida Console;fontSize=15;align=center;" vertex="1" parent="BOQhzw1DH6TcYTrtDjCy-159">
          <mxGeometry width="160" height="30" as="geometry">
            <mxRectangle width="160" height="30" as="alternateBounds" />
          </mxGeometry>
        </mxCell>
        <mxCell id="BOQhzw1DH6TcYTrtDjCy-161" value="password" style="shape=partialRectangle;connectable=0;fillColor=none;top=0;left=0;bottom=0;right=0;align=center;spacingLeft=6;overflow=hidden;whiteSpace=wrap;html=1;fontFamily=Lucida Console;fontSize=15;" vertex="1" parent="BOQhzw1DH6TcYTrtDjCy-159">
          <mxGeometry x="160" width="160" height="30" as="geometry">
            <mxRectangle width="160" height="30" as="alternateBounds" />
          </mxGeometry>
        </mxCell>
        <mxCell id="BOQhzw1DH6TcYTrtDjCy-162" value="" style="shape=tableRow;horizontal=0;startSize=0;swimlaneHead=0;swimlaneBody=0;fillColor=none;collapsible=0;dropTarget=0;points=[[0,0.5],[1,0.5]];portConstraint=eastwest;top=0;left=0;right=0;bottom=0;fontFamily=Lucida Console;fontSize=15;align=center;" vertex="1" parent="BOQhzw1DH6TcYTrtDjCy-143">
          <mxGeometry y="210" width="320" height="30" as="geometry" />
        </mxCell>
        <mxCell id="BOQhzw1DH6TcYTrtDjCy-163" value="&lt;b&gt;int&lt;/b&gt;" style="shape=partialRectangle;connectable=0;fillColor=none;top=0;left=0;bottom=0;right=0;editable=1;overflow=hidden;whiteSpace=wrap;html=1;fontFamily=Lucida Console;fontSize=15;align=center;" vertex="1" parent="BOQhzw1DH6TcYTrtDjCy-162">
          <mxGeometry width="160" height="30" as="geometry">
            <mxRectangle width="160" height="30" as="alternateBounds" />
          </mxGeometry>
        </mxCell>
        <mxCell id="BOQhzw1DH6TcYTrtDjCy-164" value="role_id" style="shape=partialRectangle;connectable=0;fillColor=none;top=0;left=0;bottom=0;right=0;align=center;spacingLeft=6;overflow=hidden;whiteSpace=wrap;html=1;fontFamily=Lucida Console;fontSize=15;" vertex="1" parent="BOQhzw1DH6TcYTrtDjCy-162">
          <mxGeometry x="160" width="160" height="30" as="geometry">
            <mxRectangle width="160" height="30" as="alternateBounds" />
          </mxGeometry>
        </mxCell>
        <mxCell id="BOQhzw1DH6TcYTrtDjCy-165" value="" style="shape=tableRow;horizontal=0;startSize=0;swimlaneHead=0;swimlaneBody=0;fillColor=none;collapsible=0;dropTarget=0;points=[[0,0.5],[1,0.5]];portConstraint=eastwest;top=0;left=0;right=0;bottom=0;fontFamily=Lucida Console;fontSize=15;align=center;" vertex="1" parent="BOQhzw1DH6TcYTrtDjCy-143">
          <mxGeometry y="240" width="320" height="30" as="geometry" />
        </mxCell>
        <mxCell id="BOQhzw1DH6TcYTrtDjCy-166" value="&lt;b&gt;varchar(255)&lt;/b&gt;" style="shape=partialRectangle;connectable=0;fillColor=none;top=0;left=0;bottom=0;right=0;editable=1;overflow=hidden;whiteSpace=wrap;html=1;fontFamily=Lucida Console;fontSize=15;align=center;" vertex="1" parent="BOQhzw1DH6TcYTrtDjCy-165">
          <mxGeometry width="160" height="30" as="geometry">
            <mxRectangle width="160" height="30" as="alternateBounds" />
          </mxGeometry>
        </mxCell>
        <mxCell id="BOQhzw1DH6TcYTrtDjCy-167" value="profile" style="shape=partialRectangle;connectable=0;fillColor=none;top=0;left=0;bottom=0;right=0;align=center;spacingLeft=6;overflow=hidden;whiteSpace=wrap;html=1;fontFamily=Lucida Console;fontSize=15;" vertex="1" parent="BOQhzw1DH6TcYTrtDjCy-165">
          <mxGeometry x="160" width="160" height="30" as="geometry">
            <mxRectangle width="160" height="30" as="alternateBounds" />
          </mxGeometry>
        </mxCell>
        <mxCell id="BOQhzw1DH6TcYTrtDjCy-168" value="" style="shape=tableRow;horizontal=0;startSize=0;swimlaneHead=0;swimlaneBody=0;fillColor=none;collapsible=0;dropTarget=0;points=[[0,0.5],[1,0.5]];portConstraint=eastwest;top=0;left=0;right=0;bottom=0;fontFamily=Lucida Console;fontSize=15;align=center;" vertex="1" parent="BOQhzw1DH6TcYTrtDjCy-143">
          <mxGeometry y="270" width="320" height="30" as="geometry" />
        </mxCell>
        <mxCell id="BOQhzw1DH6TcYTrtDjCy-169" value="&lt;b&gt;varchar(500)&lt;/b&gt;" style="shape=partialRectangle;connectable=0;fillColor=none;top=0;left=0;bottom=0;right=0;editable=1;overflow=hidden;whiteSpace=wrap;html=1;fontFamily=Lucida Console;fontSize=15;align=center;" vertex="1" parent="BOQhzw1DH6TcYTrtDjCy-168">
          <mxGeometry width="160" height="30" as="geometry">
            <mxRectangle width="160" height="30" as="alternateBounds" />
          </mxGeometry>
        </mxCell>
        <mxCell id="BOQhzw1DH6TcYTrtDjCy-170" value="qrcode" style="shape=partialRectangle;connectable=0;fillColor=none;top=0;left=0;bottom=0;right=0;align=center;spacingLeft=6;overflow=hidden;whiteSpace=wrap;html=1;fontFamily=Lucida Console;fontSize=15;" vertex="1" parent="BOQhzw1DH6TcYTrtDjCy-168">
          <mxGeometry x="160" width="160" height="30" as="geometry">
            <mxRectangle width="160" height="30" as="alternateBounds" />
          </mxGeometry>
        </mxCell>
        <mxCell id="BOQhzw1DH6TcYTrtDjCy-171" value="" style="shape=tableRow;horizontal=0;startSize=0;swimlaneHead=0;swimlaneBody=0;fillColor=none;collapsible=0;dropTarget=0;points=[[0,0.5],[1,0.5]];portConstraint=eastwest;top=0;left=0;right=0;bottom=0;fontFamily=Lucida Console;fontSize=15;align=center;" vertex="1" parent="BOQhzw1DH6TcYTrtDjCy-143">
          <mxGeometry y="300" width="320" height="30" as="geometry" />
        </mxCell>
        <mxCell id="BOQhzw1DH6TcYTrtDjCy-172" value="&lt;b&gt;int&lt;/b&gt;" style="shape=partialRectangle;connectable=0;fillColor=none;top=0;left=0;bottom=0;right=0;editable=1;overflow=hidden;whiteSpace=wrap;html=1;fontFamily=Lucida Console;fontSize=15;align=center;" vertex="1" parent="BOQhzw1DH6TcYTrtDjCy-171">
          <mxGeometry width="160" height="30" as="geometry">
            <mxRectangle width="160" height="30" as="alternateBounds" />
          </mxGeometry>
        </mxCell>
        <mxCell id="BOQhzw1DH6TcYTrtDjCy-173" value="otp" style="shape=partialRectangle;connectable=0;fillColor=none;top=0;left=0;bottom=0;right=0;align=center;spacingLeft=6;overflow=hidden;whiteSpace=wrap;html=1;fontFamily=Lucida Console;fontSize=15;" vertex="1" parent="BOQhzw1DH6TcYTrtDjCy-171">
          <mxGeometry x="160" width="160" height="30" as="geometry">
            <mxRectangle width="160" height="30" as="alternateBounds" />
          </mxGeometry>
        </mxCell>
        <mxCell id="BOQhzw1DH6TcYTrtDjCy-174" value="Users" style="shape=table;startSize=30;container=1;collapsible=1;childLayout=tableLayout;fixedRows=1;rowLines=0;fontStyle=1;align=center;resizeLast=1;html=1;fontFamily=Lucida Console;fontSize=15;rounded=0;swimlaneLine=1;" vertex="1" parent="1">
          <mxGeometry x="70" y="760" width="280" height="210" as="geometry" />
        </mxCell>
        <mxCell id="BOQhzw1DH6TcYTrtDjCy-175" value="" style="shape=tableRow;horizontal=0;startSize=0;swimlaneHead=0;swimlaneBody=0;fillColor=none;collapsible=0;dropTarget=0;points=[[0,0.5],[1,0.5]];portConstraint=eastwest;top=0;left=0;right=0;bottom=1;fontFamily=Lucida Console;fontSize=15;align=center;" vertex="1" parent="BOQhzw1DH6TcYTrtDjCy-174">
          <mxGeometry y="30" width="280" height="30" as="geometry" />
        </mxCell>
        <mxCell id="BOQhzw1DH6TcYTrtDjCy-176" value="int" style="shape=partialRectangle;connectable=0;fillColor=none;top=0;left=0;bottom=0;right=0;fontStyle=1;overflow=hidden;whiteSpace=wrap;html=1;fontFamily=Lucida Console;fontSize=15;align=center;" vertex="1" parent="BOQhzw1DH6TcYTrtDjCy-175">
          <mxGeometry width="140" height="30" as="geometry">
            <mxRectangle width="140" height="30" as="alternateBounds" />
          </mxGeometry>
        </mxCell>
        <mxCell id="BOQhzw1DH6TcYTrtDjCy-177" value="id" style="shape=partialRectangle;connectable=0;fillColor=none;top=0;left=0;bottom=0;right=0;align=center;spacingLeft=6;fontStyle=5;overflow=hidden;whiteSpace=wrap;html=1;fontFamily=Lucida Console;fontSize=15;" vertex="1" parent="BOQhzw1DH6TcYTrtDjCy-175">
          <mxGeometry x="140" width="140" height="30" as="geometry">
            <mxRectangle width="140" height="30" as="alternateBounds" />
          </mxGeometry>
        </mxCell>
        <mxCell id="BOQhzw1DH6TcYTrtDjCy-178" value="" style="shape=tableRow;horizontal=0;startSize=0;swimlaneHead=0;swimlaneBody=0;fillColor=none;collapsible=0;dropTarget=0;points=[[0,0.5],[1,0.5]];portConstraint=eastwest;top=0;left=0;right=0;bottom=0;fontFamily=Lucida Console;fontSize=15;align=center;" vertex="1" parent="BOQhzw1DH6TcYTrtDjCy-174">
          <mxGeometry y="60" width="280" height="30" as="geometry" />
        </mxCell>
        <mxCell id="BOQhzw1DH6TcYTrtDjCy-179" value="&lt;b&gt;varchar(20)&lt;/b&gt;" style="shape=partialRectangle;connectable=0;fillColor=none;top=0;left=0;bottom=0;right=0;editable=1;overflow=hidden;whiteSpace=wrap;html=1;fontFamily=Lucida Console;fontSize=15;align=center;" vertex="1" parent="BOQhzw1DH6TcYTrtDjCy-178">
          <mxGeometry width="140" height="30" as="geometry">
            <mxRectangle width="140" height="30" as="alternateBounds" />
          </mxGeometry>
        </mxCell>
        <mxCell id="BOQhzw1DH6TcYTrtDjCy-180" value="username" style="shape=partialRectangle;connectable=0;fillColor=none;top=0;left=0;bottom=0;right=0;align=center;spacingLeft=6;overflow=hidden;whiteSpace=wrap;html=1;fontFamily=Lucida Console;fontSize=15;" vertex="1" parent="BOQhzw1DH6TcYTrtDjCy-178">
          <mxGeometry x="140" width="140" height="30" as="geometry">
            <mxRectangle width="140" height="30" as="alternateBounds" />
          </mxGeometry>
        </mxCell>
        <mxCell id="BOQhzw1DH6TcYTrtDjCy-181" value="" style="shape=tableRow;horizontal=0;startSize=0;swimlaneHead=0;swimlaneBody=0;fillColor=none;collapsible=0;dropTarget=0;points=[[0,0.5],[1,0.5]];portConstraint=eastwest;top=0;left=0;right=0;bottom=0;fontFamily=Lucida Console;fontSize=15;align=center;" vertex="1" parent="BOQhzw1DH6TcYTrtDjCy-174">
          <mxGeometry y="90" width="280" height="30" as="geometry" />
        </mxCell>
        <mxCell id="BOQhzw1DH6TcYTrtDjCy-182" value="varchar(255)" style="shape=partialRectangle;connectable=0;fillColor=none;top=0;left=0;bottom=0;right=0;editable=1;overflow=hidden;whiteSpace=wrap;html=1;fontStyle=1;fontFamily=Lucida Console;fontSize=15;align=center;" vertex="1" parent="BOQhzw1DH6TcYTrtDjCy-181">
          <mxGeometry width="140" height="30" as="geometry">
            <mxRectangle width="140" height="30" as="alternateBounds" />
          </mxGeometry>
        </mxCell>
        <mxCell id="BOQhzw1DH6TcYTrtDjCy-183" value="password" style="shape=partialRectangle;connectable=0;fillColor=none;top=0;left=0;bottom=0;right=0;align=center;spacingLeft=6;overflow=hidden;whiteSpace=wrap;html=1;fontFamily=Lucida Console;fontSize=15;" vertex="1" parent="BOQhzw1DH6TcYTrtDjCy-181">
          <mxGeometry x="140" width="140" height="30" as="geometry">
            <mxRectangle width="140" height="30" as="alternateBounds" />
          </mxGeometry>
        </mxCell>
        <mxCell id="BOQhzw1DH6TcYTrtDjCy-184" value="" style="shape=tableRow;horizontal=0;startSize=0;swimlaneHead=0;swimlaneBody=0;fillColor=none;collapsible=0;dropTarget=0;points=[[0,0.5],[1,0.5]];portConstraint=eastwest;top=0;left=0;right=0;bottom=0;fontFamily=Lucida Console;fontSize=15;align=center;" vertex="1" parent="BOQhzw1DH6TcYTrtDjCy-174">
          <mxGeometry y="120" width="280" height="30" as="geometry" />
        </mxCell>
        <mxCell id="BOQhzw1DH6TcYTrtDjCy-185" value="&lt;b&gt;int&lt;/b&gt;" style="shape=partialRectangle;connectable=0;fillColor=none;top=0;left=0;bottom=0;right=0;editable=1;overflow=hidden;whiteSpace=wrap;html=1;fontFamily=Lucida Console;fontSize=15;align=center;" vertex="1" parent="BOQhzw1DH6TcYTrtDjCy-184">
          <mxGeometry width="140" height="30" as="geometry">
            <mxRectangle width="140" height="30" as="alternateBounds" />
          </mxGeometry>
        </mxCell>
        <mxCell id="BOQhzw1DH6TcYTrtDjCy-186" value="role_id" style="shape=partialRectangle;connectable=0;fillColor=none;top=0;left=0;bottom=0;right=0;align=center;spacingLeft=6;overflow=hidden;whiteSpace=wrap;html=1;fontFamily=Lucida Console;fontSize=15;" vertex="1" parent="BOQhzw1DH6TcYTrtDjCy-184">
          <mxGeometry x="140" width="140" height="30" as="geometry">
            <mxRectangle width="140" height="30" as="alternateBounds" />
          </mxGeometry>
        </mxCell>
        <mxCell id="BOQhzw1DH6TcYTrtDjCy-187" value="" style="shape=tableRow;horizontal=0;startSize=0;swimlaneHead=0;swimlaneBody=0;fillColor=none;collapsible=0;dropTarget=0;points=[[0,0.5],[1,0.5]];portConstraint=eastwest;top=0;left=0;right=0;bottom=0;fontFamily=Lucida Console;fontSize=15;align=center;" vertex="1" parent="BOQhzw1DH6TcYTrtDjCy-174">
          <mxGeometry y="150" width="280" height="30" as="geometry" />
        </mxCell>
        <mxCell id="BOQhzw1DH6TcYTrtDjCy-188" value="&lt;b&gt;varchar(10)&lt;/b&gt;" style="shape=partialRectangle;connectable=0;fillColor=none;top=0;left=0;bottom=0;right=0;editable=1;overflow=hidden;whiteSpace=wrap;html=1;fontFamily=Lucida Console;fontSize=15;align=center;" vertex="1" parent="BOQhzw1DH6TcYTrtDjCy-187">
          <mxGeometry width="140" height="30" as="geometry">
            <mxRectangle width="140" height="30" as="alternateBounds" />
          </mxGeometry>
        </mxCell>
        <mxCell id="BOQhzw1DH6TcYTrtDjCy-189" value="status" style="shape=partialRectangle;connectable=0;fillColor=none;top=0;left=0;bottom=0;right=0;align=center;spacingLeft=6;overflow=hidden;whiteSpace=wrap;html=1;fontFamily=Lucida Console;fontSize=15;" vertex="1" parent="BOQhzw1DH6TcYTrtDjCy-187">
          <mxGeometry x="140" width="140" height="30" as="geometry">
            <mxRectangle width="140" height="30" as="alternateBounds" />
          </mxGeometry>
        </mxCell>
        <mxCell id="BOQhzw1DH6TcYTrtDjCy-190" value="" style="shape=tableRow;horizontal=0;startSize=0;swimlaneHead=0;swimlaneBody=0;fillColor=none;collapsible=0;dropTarget=0;points=[[0,0.5],[1,0.5]];portConstraint=eastwest;top=0;left=0;right=0;bottom=0;fontFamily=Lucida Console;fontSize=15;align=center;" vertex="1" parent="BOQhzw1DH6TcYTrtDjCy-174">
          <mxGeometry y="180" width="280" height="30" as="geometry" />
        </mxCell>
        <mxCell id="BOQhzw1DH6TcYTrtDjCy-191" value="&lt;b&gt;int&lt;/b&gt;" style="shape=partialRectangle;connectable=0;fillColor=none;top=0;left=0;bottom=0;right=0;editable=1;overflow=hidden;whiteSpace=wrap;html=1;fontFamily=Lucida Console;fontSize=15;align=center;" vertex="1" parent="BOQhzw1DH6TcYTrtDjCy-190">
          <mxGeometry width="140" height="30" as="geometry">
            <mxRectangle width="140" height="30" as="alternateBounds" />
          </mxGeometry>
        </mxCell>
        <mxCell id="BOQhzw1DH6TcYTrtDjCy-192" value="sem_id" style="shape=partialRectangle;connectable=0;fillColor=none;top=0;left=0;bottom=0;right=0;align=center;spacingLeft=6;overflow=hidden;whiteSpace=wrap;html=1;fontFamily=Lucida Console;fontSize=15;" vertex="1" parent="BOQhzw1DH6TcYTrtDjCy-190">
          <mxGeometry x="140" width="140" height="30" as="geometry">
            <mxRectangle width="140" height="30" as="alternateBounds" />
          </mxGeometry>
        </mxCell>
        <mxCell id="BOQhzw1DH6TcYTrtDjCy-205" style="edgeStyle=orthogonalEdgeStyle;rounded=0;orthogonalLoop=1;jettySize=auto;html=1;startArrow=ERzeroToMany;startFill=0;endArrow=ERmandOne;endFill=0;targetPerimeterSpacing=10;sourcePerimeterSpacing=10;endSize=15;startSize=15;" edge="1" parent="1">
          <mxGeometry relative="1" as="geometry">
            <mxPoint x="160" y="760" as="sourcePoint" />
            <mxPoint x="550" y="140" as="targetPoint" />
            <Array as="points">
              <mxPoint x="160" y="140" />
            </Array>
          </mxGeometry>
        </mxCell>
        <mxCell id="BOQhzw1DH6TcYTrtDjCy-206" style="edgeStyle=orthogonalEdgeStyle;rounded=0;orthogonalLoop=1;jettySize=auto;html=1;startArrow=ERzeroToMany;startFill=0;endArrow=ERmandOne;endFill=0;endSize=15;startSize=15;" edge="1" parent="1">
          <mxGeometry relative="1" as="geometry">
            <mxPoint x="230" y="760" as="sourcePoint" />
            <mxPoint x="230" y="550" as="targetPoint" />
            <Array as="points">
              <mxPoint x="230" y="660" />
              <mxPoint x="230" y="660" />
            </Array>
          </mxGeometry>
        </mxCell>
        <mxCell id="BOQhzw1DH6TcYTrtDjCy-207" style="edgeStyle=orthogonalEdgeStyle;rounded=0;orthogonalLoop=1;jettySize=auto;html=1;startArrow=ERzeroToMany;startFill=0;endArrow=ERmandOne;endFill=0;endSize=15;startSize=15;" edge="1" parent="1">
          <mxGeometry relative="1" as="geometry">
            <mxPoint x="720" y="760" as="sourcePoint" />
            <mxPoint x="370" y="550" as="targetPoint" />
            <Array as="points">
              <mxPoint x="720" y="690" />
              <mxPoint x="370" y="690" />
            </Array>
          </mxGeometry>
        </mxCell>
        <mxCell id="BOQhzw1DH6TcYTrtDjCy-208" value="Users" style="shape=table;startSize=30;container=1;collapsible=1;childLayout=tableLayout;fixedRows=1;rowLines=0;fontStyle=1;align=center;resizeLast=1;html=1;fontFamily=Lucida Console;fontSize=15;rounded=0;swimlaneLine=1;" vertex="1" parent="1">
          <mxGeometry x="1520" y="640" width="280" height="210" as="geometry" />
        </mxCell>
        <mxCell id="BOQhzw1DH6TcYTrtDjCy-209" value="" style="shape=tableRow;horizontal=0;startSize=0;swimlaneHead=0;swimlaneBody=0;fillColor=none;collapsible=0;dropTarget=0;points=[[0,0.5],[1,0.5]];portConstraint=eastwest;top=0;left=0;right=0;bottom=1;fontFamily=Lucida Console;fontSize=15;align=center;" vertex="1" parent="BOQhzw1DH6TcYTrtDjCy-208">
          <mxGeometry y="30" width="280" height="30" as="geometry" />
        </mxCell>
        <mxCell id="BOQhzw1DH6TcYTrtDjCy-210" value="int" style="shape=partialRectangle;connectable=0;fillColor=none;top=0;left=0;bottom=0;right=0;fontStyle=1;overflow=hidden;whiteSpace=wrap;html=1;fontFamily=Lucida Console;fontSize=15;align=center;" vertex="1" parent="BOQhzw1DH6TcYTrtDjCy-209">
          <mxGeometry width="140" height="30" as="geometry">
            <mxRectangle width="140" height="30" as="alternateBounds" />
          </mxGeometry>
        </mxCell>
        <mxCell id="BOQhzw1DH6TcYTrtDjCy-211" value="id" style="shape=partialRectangle;connectable=0;fillColor=none;top=0;left=0;bottom=0;right=0;align=center;spacingLeft=6;fontStyle=5;overflow=hidden;whiteSpace=wrap;html=1;fontFamily=Lucida Console;fontSize=15;" vertex="1" parent="BOQhzw1DH6TcYTrtDjCy-209">
          <mxGeometry x="140" width="140" height="30" as="geometry">
            <mxRectangle width="140" height="30" as="alternateBounds" />
          </mxGeometry>
        </mxCell>
        <mxCell id="BOQhzw1DH6TcYTrtDjCy-212" value="" style="shape=tableRow;horizontal=0;startSize=0;swimlaneHead=0;swimlaneBody=0;fillColor=none;collapsible=0;dropTarget=0;points=[[0,0.5],[1,0.5]];portConstraint=eastwest;top=0;left=0;right=0;bottom=0;fontFamily=Lucida Console;fontSize=15;align=center;" vertex="1" parent="BOQhzw1DH6TcYTrtDjCy-208">
          <mxGeometry y="60" width="280" height="30" as="geometry" />
        </mxCell>
        <mxCell id="BOQhzw1DH6TcYTrtDjCy-213" value="&lt;b&gt;varchar(20)&lt;/b&gt;" style="shape=partialRectangle;connectable=0;fillColor=none;top=0;left=0;bottom=0;right=0;editable=1;overflow=hidden;whiteSpace=wrap;html=1;fontFamily=Lucida Console;fontSize=15;align=center;" vertex="1" parent="BOQhzw1DH6TcYTrtDjCy-212">
          <mxGeometry width="140" height="30" as="geometry">
            <mxRectangle width="140" height="30" as="alternateBounds" />
          </mxGeometry>
        </mxCell>
        <mxCell id="BOQhzw1DH6TcYTrtDjCy-214" value="username" style="shape=partialRectangle;connectable=0;fillColor=none;top=0;left=0;bottom=0;right=0;align=center;spacingLeft=6;overflow=hidden;whiteSpace=wrap;html=1;fontFamily=Lucida Console;fontSize=15;" vertex="1" parent="BOQhzw1DH6TcYTrtDjCy-212">
          <mxGeometry x="140" width="140" height="30" as="geometry">
            <mxRectangle width="140" height="30" as="alternateBounds" />
          </mxGeometry>
        </mxCell>
        <mxCell id="BOQhzw1DH6TcYTrtDjCy-215" value="" style="shape=tableRow;horizontal=0;startSize=0;swimlaneHead=0;swimlaneBody=0;fillColor=none;collapsible=0;dropTarget=0;points=[[0,0.5],[1,0.5]];portConstraint=eastwest;top=0;left=0;right=0;bottom=0;fontFamily=Lucida Console;fontSize=15;align=center;" vertex="1" parent="BOQhzw1DH6TcYTrtDjCy-208">
          <mxGeometry y="90" width="280" height="30" as="geometry" />
        </mxCell>
        <mxCell id="BOQhzw1DH6TcYTrtDjCy-216" value="varchar(255)" style="shape=partialRectangle;connectable=0;fillColor=none;top=0;left=0;bottom=0;right=0;editable=1;overflow=hidden;whiteSpace=wrap;html=1;fontStyle=1;fontFamily=Lucida Console;fontSize=15;align=center;" vertex="1" parent="BOQhzw1DH6TcYTrtDjCy-215">
          <mxGeometry width="140" height="30" as="geometry">
            <mxRectangle width="140" height="30" as="alternateBounds" />
          </mxGeometry>
        </mxCell>
        <mxCell id="BOQhzw1DH6TcYTrtDjCy-217" value="password" style="shape=partialRectangle;connectable=0;fillColor=none;top=0;left=0;bottom=0;right=0;align=center;spacingLeft=6;overflow=hidden;whiteSpace=wrap;html=1;fontFamily=Lucida Console;fontSize=15;" vertex="1" parent="BOQhzw1DH6TcYTrtDjCy-215">
          <mxGeometry x="140" width="140" height="30" as="geometry">
            <mxRectangle width="140" height="30" as="alternateBounds" />
          </mxGeometry>
        </mxCell>
        <mxCell id="BOQhzw1DH6TcYTrtDjCy-218" value="" style="shape=tableRow;horizontal=0;startSize=0;swimlaneHead=0;swimlaneBody=0;fillColor=none;collapsible=0;dropTarget=0;points=[[0,0.5],[1,0.5]];portConstraint=eastwest;top=0;left=0;right=0;bottom=0;fontFamily=Lucida Console;fontSize=15;align=center;" vertex="1" parent="BOQhzw1DH6TcYTrtDjCy-208">
          <mxGeometry y="120" width="280" height="30" as="geometry" />
        </mxCell>
        <mxCell id="BOQhzw1DH6TcYTrtDjCy-219" value="&lt;b&gt;int&lt;/b&gt;" style="shape=partialRectangle;connectable=0;fillColor=none;top=0;left=0;bottom=0;right=0;editable=1;overflow=hidden;whiteSpace=wrap;html=1;fontFamily=Lucida Console;fontSize=15;align=center;" vertex="1" parent="BOQhzw1DH6TcYTrtDjCy-218">
          <mxGeometry width="140" height="30" as="geometry">
            <mxRectangle width="140" height="30" as="alternateBounds" />
          </mxGeometry>
        </mxCell>
        <mxCell id="BOQhzw1DH6TcYTrtDjCy-220" value="role_id" style="shape=partialRectangle;connectable=0;fillColor=none;top=0;left=0;bottom=0;right=0;align=center;spacingLeft=6;overflow=hidden;whiteSpace=wrap;html=1;fontFamily=Lucida Console;fontSize=15;" vertex="1" parent="BOQhzw1DH6TcYTrtDjCy-218">
          <mxGeometry x="140" width="140" height="30" as="geometry">
            <mxRectangle width="140" height="30" as="alternateBounds" />
          </mxGeometry>
        </mxCell>
        <mxCell id="BOQhzw1DH6TcYTrtDjCy-221" value="" style="shape=tableRow;horizontal=0;startSize=0;swimlaneHead=0;swimlaneBody=0;fillColor=none;collapsible=0;dropTarget=0;points=[[0,0.5],[1,0.5]];portConstraint=eastwest;top=0;left=0;right=0;bottom=0;fontFamily=Lucida Console;fontSize=15;align=center;" vertex="1" parent="BOQhzw1DH6TcYTrtDjCy-208">
          <mxGeometry y="150" width="280" height="30" as="geometry" />
        </mxCell>
        <mxCell id="BOQhzw1DH6TcYTrtDjCy-222" value="&lt;b&gt;varchar(10)&lt;/b&gt;" style="shape=partialRectangle;connectable=0;fillColor=none;top=0;left=0;bottom=0;right=0;editable=1;overflow=hidden;whiteSpace=wrap;html=1;fontFamily=Lucida Console;fontSize=15;align=center;" vertex="1" parent="BOQhzw1DH6TcYTrtDjCy-221">
          <mxGeometry width="140" height="30" as="geometry">
            <mxRectangle width="140" height="30" as="alternateBounds" />
          </mxGeometry>
        </mxCell>
        <mxCell id="BOQhzw1DH6TcYTrtDjCy-223" value="status" style="shape=partialRectangle;connectable=0;fillColor=none;top=0;left=0;bottom=0;right=0;align=center;spacingLeft=6;overflow=hidden;whiteSpace=wrap;html=1;fontFamily=Lucida Console;fontSize=15;" vertex="1" parent="BOQhzw1DH6TcYTrtDjCy-221">
          <mxGeometry x="140" width="140" height="30" as="geometry">
            <mxRectangle width="140" height="30" as="alternateBounds" />
          </mxGeometry>
        </mxCell>
        <mxCell id="BOQhzw1DH6TcYTrtDjCy-224" value="" style="shape=tableRow;horizontal=0;startSize=0;swimlaneHead=0;swimlaneBody=0;fillColor=none;collapsible=0;dropTarget=0;points=[[0,0.5],[1,0.5]];portConstraint=eastwest;top=0;left=0;right=0;bottom=0;fontFamily=Lucida Console;fontSize=15;align=center;" vertex="1" parent="BOQhzw1DH6TcYTrtDjCy-208">
          <mxGeometry y="180" width="280" height="30" as="geometry" />
        </mxCell>
        <mxCell id="BOQhzw1DH6TcYTrtDjCy-225" value="&lt;b&gt;int&lt;/b&gt;" style="shape=partialRectangle;connectable=0;fillColor=none;top=0;left=0;bottom=0;right=0;editable=1;overflow=hidden;whiteSpace=wrap;html=1;fontFamily=Lucida Console;fontSize=15;align=center;" vertex="1" parent="BOQhzw1DH6TcYTrtDjCy-224">
          <mxGeometry width="140" height="30" as="geometry">
            <mxRectangle width="140" height="30" as="alternateBounds" />
          </mxGeometry>
        </mxCell>
        <mxCell id="BOQhzw1DH6TcYTrtDjCy-226" value="sem_id" style="shape=partialRectangle;connectable=0;fillColor=none;top=0;left=0;bottom=0;right=0;align=center;spacingLeft=6;overflow=hidden;whiteSpace=wrap;html=1;fontFamily=Lucida Console;fontSize=15;" vertex="1" parent="BOQhzw1DH6TcYTrtDjCy-224">
          <mxGeometry x="140" width="140" height="30" as="geometry">
            <mxRectangle width="140" height="30" as="alternateBounds" />
          </mxGeometry>
        </mxCell>
        <mxCell id="BOQhzw1DH6TcYTrtDjCy-227" value="ValidatorInfo" style="shape=table;startSize=30;container=1;collapsible=1;childLayout=tableLayout;fixedRows=1;rowLines=0;fontStyle=1;align=center;resizeLast=1;html=1;fontFamily=Lucida Console;fontSize=15;rounded=0;swimlaneLine=1;" vertex="1" parent="1">
          <mxGeometry x="1140" y="40" width="320" height="240" as="geometry" />
        </mxCell>
        <mxCell id="BOQhzw1DH6TcYTrtDjCy-228" value="" style="shape=tableRow;horizontal=0;startSize=0;swimlaneHead=0;swimlaneBody=0;fillColor=none;collapsible=0;dropTarget=0;points=[[0,0.5],[1,0.5]];portConstraint=eastwest;top=0;left=0;right=0;bottom=1;fontFamily=Lucida Console;fontSize=15;align=center;" vertex="1" parent="BOQhzw1DH6TcYTrtDjCy-227">
          <mxGeometry y="30" width="320" height="30" as="geometry" />
        </mxCell>
        <mxCell id="BOQhzw1DH6TcYTrtDjCy-229" value="int" style="shape=partialRectangle;connectable=0;fillColor=none;top=0;left=0;bottom=0;right=0;fontStyle=1;overflow=hidden;whiteSpace=wrap;html=1;fontFamily=Lucida Console;fontSize=15;align=center;" vertex="1" parent="BOQhzw1DH6TcYTrtDjCy-228">
          <mxGeometry width="160" height="30" as="geometry">
            <mxRectangle width="160" height="30" as="alternateBounds" />
          </mxGeometry>
        </mxCell>
        <mxCell id="BOQhzw1DH6TcYTrtDjCy-230" value="id" style="shape=partialRectangle;connectable=0;fillColor=none;top=0;left=0;bottom=0;right=0;align=center;spacingLeft=6;fontStyle=5;overflow=hidden;whiteSpace=wrap;html=1;fontFamily=Lucida Console;fontSize=15;" vertex="1" parent="BOQhzw1DH6TcYTrtDjCy-228">
          <mxGeometry x="160" width="160" height="30" as="geometry">
            <mxRectangle width="160" height="30" as="alternateBounds" />
          </mxGeometry>
        </mxCell>
        <mxCell id="BOQhzw1DH6TcYTrtDjCy-231" value="" style="shape=tableRow;horizontal=0;startSize=0;swimlaneHead=0;swimlaneBody=0;fillColor=none;collapsible=0;dropTarget=0;points=[[0,0.5],[1,0.5]];portConstraint=eastwest;top=0;left=0;right=0;bottom=0;fontFamily=Lucida Console;fontSize=15;align=center;" vertex="1" parent="BOQhzw1DH6TcYTrtDjCy-227">
          <mxGeometry y="60" width="320" height="30" as="geometry" />
        </mxCell>
        <mxCell id="BOQhzw1DH6TcYTrtDjCy-232" value="&lt;b&gt;varchar(50)&lt;/b&gt;" style="shape=partialRectangle;connectable=0;fillColor=none;top=0;left=0;bottom=0;right=0;editable=1;overflow=hidden;whiteSpace=wrap;html=1;fontFamily=Lucida Console;fontSize=15;align=center;" vertex="1" parent="BOQhzw1DH6TcYTrtDjCy-231">
          <mxGeometry width="160" height="30" as="geometry">
            <mxRectangle width="160" height="30" as="alternateBounds" />
          </mxGeometry>
        </mxCell>
        <mxCell id="BOQhzw1DH6TcYTrtDjCy-233" value="surname" style="shape=partialRectangle;connectable=0;fillColor=none;top=0;left=0;bottom=0;right=0;align=center;spacingLeft=6;overflow=hidden;whiteSpace=wrap;html=1;fontFamily=Lucida Console;fontSize=15;" vertex="1" parent="BOQhzw1DH6TcYTrtDjCy-231">
          <mxGeometry x="160" width="160" height="30" as="geometry">
            <mxRectangle width="160" height="30" as="alternateBounds" />
          </mxGeometry>
        </mxCell>
        <mxCell id="BOQhzw1DH6TcYTrtDjCy-234" value="" style="shape=tableRow;horizontal=0;startSize=0;swimlaneHead=0;swimlaneBody=0;fillColor=none;collapsible=0;dropTarget=0;points=[[0,0.5],[1,0.5]];portConstraint=eastwest;top=0;left=0;right=0;bottom=0;fontFamily=Lucida Console;fontSize=15;align=center;" vertex="1" parent="BOQhzw1DH6TcYTrtDjCy-227">
          <mxGeometry y="90" width="320" height="30" as="geometry" />
        </mxCell>
        <mxCell id="BOQhzw1DH6TcYTrtDjCy-235" value="&lt;b&gt;varchar(50)&lt;/b&gt;" style="shape=partialRectangle;connectable=0;fillColor=none;top=0;left=0;bottom=0;right=0;editable=1;overflow=hidden;whiteSpace=wrap;html=1;fontStyle=1;fontFamily=Lucida Console;fontSize=15;align=center;" vertex="1" parent="BOQhzw1DH6TcYTrtDjCy-234">
          <mxGeometry width="160" height="30" as="geometry">
            <mxRectangle width="160" height="30" as="alternateBounds" />
          </mxGeometry>
        </mxCell>
        <mxCell id="BOQhzw1DH6TcYTrtDjCy-236" value="firstname" style="shape=partialRectangle;connectable=0;fillColor=none;top=0;left=0;bottom=0;right=0;align=center;spacingLeft=6;overflow=hidden;whiteSpace=wrap;html=1;fontFamily=Lucida Console;fontSize=15;" vertex="1" parent="BOQhzw1DH6TcYTrtDjCy-234">
          <mxGeometry x="160" width="160" height="30" as="geometry">
            <mxRectangle width="160" height="30" as="alternateBounds" />
          </mxGeometry>
        </mxCell>
        <mxCell id="BOQhzw1DH6TcYTrtDjCy-237" value="" style="shape=tableRow;horizontal=0;startSize=0;swimlaneHead=0;swimlaneBody=0;fillColor=none;collapsible=0;dropTarget=0;points=[[0,0.5],[1,0.5]];portConstraint=eastwest;top=0;left=0;right=0;bottom=0;fontFamily=Lucida Console;fontSize=15;align=center;" vertex="1" parent="BOQhzw1DH6TcYTrtDjCy-227">
          <mxGeometry y="120" width="320" height="30" as="geometry" />
        </mxCell>
        <mxCell id="BOQhzw1DH6TcYTrtDjCy-238" value="&lt;b&gt;varchar(50)&lt;/b&gt;" style="shape=partialRectangle;connectable=0;fillColor=none;top=0;left=0;bottom=0;right=0;editable=1;overflow=hidden;whiteSpace=wrap;html=1;fontFamily=Lucida Console;fontSize=15;align=center;" vertex="1" parent="BOQhzw1DH6TcYTrtDjCy-237">
          <mxGeometry width="160" height="30" as="geometry">
            <mxRectangle width="160" height="30" as="alternateBounds" />
          </mxGeometry>
        </mxCell>
        <mxCell id="BOQhzw1DH6TcYTrtDjCy-239" value="email" style="shape=partialRectangle;connectable=0;fillColor=none;top=0;left=0;bottom=0;right=0;align=center;spacingLeft=6;overflow=hidden;whiteSpace=wrap;html=1;fontFamily=Lucida Console;fontSize=15;" vertex="1" parent="BOQhzw1DH6TcYTrtDjCy-237">
          <mxGeometry x="160" width="160" height="30" as="geometry">
            <mxRectangle width="160" height="30" as="alternateBounds" />
          </mxGeometry>
        </mxCell>
        <mxCell id="BOQhzw1DH6TcYTrtDjCy-240" value="" style="shape=tableRow;horizontal=0;startSize=0;swimlaneHead=0;swimlaneBody=0;fillColor=none;collapsible=0;dropTarget=0;points=[[0,0.5],[1,0.5]];portConstraint=eastwest;top=0;left=0;right=0;bottom=0;fontFamily=Lucida Console;fontSize=15;align=center;" vertex="1" parent="BOQhzw1DH6TcYTrtDjCy-227">
          <mxGeometry y="150" width="320" height="30" as="geometry" />
        </mxCell>
        <mxCell id="BOQhzw1DH6TcYTrtDjCy-241" value="&lt;b&gt;int&lt;/b&gt;" style="shape=partialRectangle;connectable=0;fillColor=none;top=0;left=0;bottom=0;right=0;editable=1;overflow=hidden;whiteSpace=wrap;html=1;fontFamily=Lucida Console;fontSize=15;align=center;" vertex="1" parent="BOQhzw1DH6TcYTrtDjCy-240">
          <mxGeometry width="160" height="30" as="geometry">
            <mxRectangle width="160" height="30" as="alternateBounds" />
          </mxGeometry>
        </mxCell>
        <mxCell id="BOQhzw1DH6TcYTrtDjCy-242" value="user_id" style="shape=partialRectangle;connectable=0;fillColor=none;top=0;left=0;bottom=0;right=0;align=center;spacingLeft=6;overflow=hidden;whiteSpace=wrap;html=1;fontFamily=Lucida Console;fontSize=15;" vertex="1" parent="BOQhzw1DH6TcYTrtDjCy-240">
          <mxGeometry x="160" width="160" height="30" as="geometry">
            <mxRectangle width="160" height="30" as="alternateBounds" />
          </mxGeometry>
        </mxCell>
        <mxCell id="BOQhzw1DH6TcYTrtDjCy-243" value="" style="shape=tableRow;horizontal=0;startSize=0;swimlaneHead=0;swimlaneBody=0;fillColor=none;collapsible=0;dropTarget=0;points=[[0,0.5],[1,0.5]];portConstraint=eastwest;top=0;left=0;right=0;bottom=0;fontFamily=Lucida Console;fontSize=15;align=center;" vertex="1" parent="BOQhzw1DH6TcYTrtDjCy-227">
          <mxGeometry y="180" width="320" height="30" as="geometry" />
        </mxCell>
        <mxCell id="BOQhzw1DH6TcYTrtDjCy-244" value="&lt;b&gt;date&lt;/b&gt;" style="shape=partialRectangle;connectable=0;fillColor=none;top=0;left=0;bottom=0;right=0;editable=1;overflow=hidden;whiteSpace=wrap;html=1;fontFamily=Lucida Console;fontSize=15;align=center;" vertex="1" parent="BOQhzw1DH6TcYTrtDjCy-243">
          <mxGeometry width="160" height="30" as="geometry">
            <mxRectangle width="160" height="30" as="alternateBounds" />
          </mxGeometry>
        </mxCell>
        <mxCell id="BOQhzw1DH6TcYTrtDjCy-245" value="dutydate" style="shape=partialRectangle;connectable=0;fillColor=none;top=0;left=0;bottom=0;right=0;align=center;spacingLeft=6;overflow=hidden;whiteSpace=wrap;html=1;fontFamily=Lucida Console;fontSize=15;" vertex="1" parent="BOQhzw1DH6TcYTrtDjCy-243">
          <mxGeometry x="160" width="160" height="30" as="geometry">
            <mxRectangle width="160" height="30" as="alternateBounds" />
          </mxGeometry>
        </mxCell>
        <mxCell id="BOQhzw1DH6TcYTrtDjCy-249" value="" style="shape=tableRow;horizontal=0;startSize=0;swimlaneHead=0;swimlaneBody=0;fillColor=none;collapsible=0;dropTarget=0;points=[[0,0.5],[1,0.5]];portConstraint=eastwest;top=0;left=0;right=0;bottom=0;fontFamily=Lucida Console;fontSize=15;align=center;" vertex="1" parent="BOQhzw1DH6TcYTrtDjCy-227">
          <mxGeometry y="210" width="320" height="30" as="geometry" />
        </mxCell>
        <mxCell id="BOQhzw1DH6TcYTrtDjCy-250" value="&lt;b&gt;varchar(255)&lt;/b&gt;" style="shape=partialRectangle;connectable=0;fillColor=none;top=0;left=0;bottom=0;right=0;editable=1;overflow=hidden;whiteSpace=wrap;html=1;fontFamily=Lucida Console;fontSize=15;align=center;" vertex="1" parent="BOQhzw1DH6TcYTrtDjCy-249">
          <mxGeometry width="160" height="30" as="geometry">
            <mxRectangle width="160" height="30" as="alternateBounds" />
          </mxGeometry>
        </mxCell>
        <mxCell id="BOQhzw1DH6TcYTrtDjCy-251" value="profile" style="shape=partialRectangle;connectable=0;fillColor=none;top=0;left=0;bottom=0;right=0;align=center;spacingLeft=6;overflow=hidden;whiteSpace=wrap;html=1;fontFamily=Lucida Console;fontSize=15;" vertex="1" parent="BOQhzw1DH6TcYTrtDjCy-249">
          <mxGeometry x="160" width="160" height="30" as="geometry">
            <mxRectangle width="160" height="30" as="alternateBounds" />
          </mxGeometry>
        </mxCell>
        <mxCell id="BOQhzw1DH6TcYTrtDjCy-258" value="DeptHead" style="shape=table;startSize=30;container=1;collapsible=1;childLayout=tableLayout;fixedRows=1;rowLines=0;fontStyle=1;align=center;resizeLast=1;html=1;fontFamily=Lucida Console;fontSize=15;rounded=0;swimlaneLine=1;" vertex="1" parent="1">
          <mxGeometry x="1140" y="400" width="320" height="270" as="geometry" />
        </mxCell>
        <mxCell id="BOQhzw1DH6TcYTrtDjCy-259" value="" style="shape=tableRow;horizontal=0;startSize=0;swimlaneHead=0;swimlaneBody=0;fillColor=none;collapsible=0;dropTarget=0;points=[[0,0.5],[1,0.5]];portConstraint=eastwest;top=0;left=0;right=0;bottom=1;fontFamily=Lucida Console;fontSize=15;align=center;" vertex="1" parent="BOQhzw1DH6TcYTrtDjCy-258">
          <mxGeometry y="30" width="320" height="30" as="geometry" />
        </mxCell>
        <mxCell id="BOQhzw1DH6TcYTrtDjCy-260" value="int" style="shape=partialRectangle;connectable=0;fillColor=none;top=0;left=0;bottom=0;right=0;fontStyle=1;overflow=hidden;whiteSpace=wrap;html=1;fontFamily=Lucida Console;fontSize=15;align=center;" vertex="1" parent="BOQhzw1DH6TcYTrtDjCy-259">
          <mxGeometry width="160" height="30" as="geometry">
            <mxRectangle width="160" height="30" as="alternateBounds" />
          </mxGeometry>
        </mxCell>
        <mxCell id="BOQhzw1DH6TcYTrtDjCy-261" value="id" style="shape=partialRectangle;connectable=0;fillColor=none;top=0;left=0;bottom=0;right=0;align=center;spacingLeft=6;fontStyle=5;overflow=hidden;whiteSpace=wrap;html=1;fontFamily=Lucida Console;fontSize=15;" vertex="1" parent="BOQhzw1DH6TcYTrtDjCy-259">
          <mxGeometry x="160" width="160" height="30" as="geometry">
            <mxRectangle width="160" height="30" as="alternateBounds" />
          </mxGeometry>
        </mxCell>
        <mxCell id="BOQhzw1DH6TcYTrtDjCy-262" value="" style="shape=tableRow;horizontal=0;startSize=0;swimlaneHead=0;swimlaneBody=0;fillColor=none;collapsible=0;dropTarget=0;points=[[0,0.5],[1,0.5]];portConstraint=eastwest;top=0;left=0;right=0;bottom=0;fontFamily=Lucida Console;fontSize=15;align=center;" vertex="1" parent="BOQhzw1DH6TcYTrtDjCy-258">
          <mxGeometry y="60" width="320" height="30" as="geometry" />
        </mxCell>
        <mxCell id="BOQhzw1DH6TcYTrtDjCy-263" value="&lt;b&gt;varchar(50)&lt;/b&gt;" style="shape=partialRectangle;connectable=0;fillColor=none;top=0;left=0;bottom=0;right=0;editable=1;overflow=hidden;whiteSpace=wrap;html=1;fontFamily=Lucida Console;fontSize=15;align=center;" vertex="1" parent="BOQhzw1DH6TcYTrtDjCy-262">
          <mxGeometry width="160" height="30" as="geometry">
            <mxRectangle width="160" height="30" as="alternateBounds" />
          </mxGeometry>
        </mxCell>
        <mxCell id="BOQhzw1DH6TcYTrtDjCy-264" value="surname" style="shape=partialRectangle;connectable=0;fillColor=none;top=0;left=0;bottom=0;right=0;align=center;spacingLeft=6;overflow=hidden;whiteSpace=wrap;html=1;fontFamily=Lucida Console;fontSize=15;" vertex="1" parent="BOQhzw1DH6TcYTrtDjCy-262">
          <mxGeometry x="160" width="160" height="30" as="geometry">
            <mxRectangle width="160" height="30" as="alternateBounds" />
          </mxGeometry>
        </mxCell>
        <mxCell id="BOQhzw1DH6TcYTrtDjCy-265" value="" style="shape=tableRow;horizontal=0;startSize=0;swimlaneHead=0;swimlaneBody=0;fillColor=none;collapsible=0;dropTarget=0;points=[[0,0.5],[1,0.5]];portConstraint=eastwest;top=0;left=0;right=0;bottom=0;fontFamily=Lucida Console;fontSize=15;align=center;" vertex="1" parent="BOQhzw1DH6TcYTrtDjCy-258">
          <mxGeometry y="90" width="320" height="30" as="geometry" />
        </mxCell>
        <mxCell id="BOQhzw1DH6TcYTrtDjCy-266" value="&lt;b&gt;varchar(50)&lt;/b&gt;" style="shape=partialRectangle;connectable=0;fillColor=none;top=0;left=0;bottom=0;right=0;editable=1;overflow=hidden;whiteSpace=wrap;html=1;fontStyle=1;fontFamily=Lucida Console;fontSize=15;align=center;" vertex="1" parent="BOQhzw1DH6TcYTrtDjCy-265">
          <mxGeometry width="160" height="30" as="geometry">
            <mxRectangle width="160" height="30" as="alternateBounds" />
          </mxGeometry>
        </mxCell>
        <mxCell id="BOQhzw1DH6TcYTrtDjCy-267" value="firstname" style="shape=partialRectangle;connectable=0;fillColor=none;top=0;left=0;bottom=0;right=0;align=center;spacingLeft=6;overflow=hidden;whiteSpace=wrap;html=1;fontFamily=Lucida Console;fontSize=15;" vertex="1" parent="BOQhzw1DH6TcYTrtDjCy-265">
          <mxGeometry x="160" width="160" height="30" as="geometry">
            <mxRectangle width="160" height="30" as="alternateBounds" />
          </mxGeometry>
        </mxCell>
        <mxCell id="BOQhzw1DH6TcYTrtDjCy-268" value="" style="shape=tableRow;horizontal=0;startSize=0;swimlaneHead=0;swimlaneBody=0;fillColor=none;collapsible=0;dropTarget=0;points=[[0,0.5],[1,0.5]];portConstraint=eastwest;top=0;left=0;right=0;bottom=0;fontFamily=Lucida Console;fontSize=15;align=center;" vertex="1" parent="BOQhzw1DH6TcYTrtDjCy-258">
          <mxGeometry y="120" width="320" height="30" as="geometry" />
        </mxCell>
        <mxCell id="BOQhzw1DH6TcYTrtDjCy-269" value="&lt;b&gt;varchar(50)&lt;/b&gt;" style="shape=partialRectangle;connectable=0;fillColor=none;top=0;left=0;bottom=0;right=0;editable=1;overflow=hidden;whiteSpace=wrap;html=1;fontFamily=Lucida Console;fontSize=15;align=center;" vertex="1" parent="BOQhzw1DH6TcYTrtDjCy-268">
          <mxGeometry width="160" height="30" as="geometry">
            <mxRectangle width="160" height="30" as="alternateBounds" />
          </mxGeometry>
        </mxCell>
        <mxCell id="BOQhzw1DH6TcYTrtDjCy-270" value="email" style="shape=partialRectangle;connectable=0;fillColor=none;top=0;left=0;bottom=0;right=0;align=center;spacingLeft=6;overflow=hidden;whiteSpace=wrap;html=1;fontFamily=Lucida Console;fontSize=15;" vertex="1" parent="BOQhzw1DH6TcYTrtDjCy-268">
          <mxGeometry x="160" width="160" height="30" as="geometry">
            <mxRectangle width="160" height="30" as="alternateBounds" />
          </mxGeometry>
        </mxCell>
        <mxCell id="BOQhzw1DH6TcYTrtDjCy-271" value="" style="shape=tableRow;horizontal=0;startSize=0;swimlaneHead=0;swimlaneBody=0;fillColor=none;collapsible=0;dropTarget=0;points=[[0,0.5],[1,0.5]];portConstraint=eastwest;top=0;left=0;right=0;bottom=0;fontFamily=Lucida Console;fontSize=15;align=center;" vertex="1" parent="BOQhzw1DH6TcYTrtDjCy-258">
          <mxGeometry y="150" width="320" height="30" as="geometry" />
        </mxCell>
        <mxCell id="BOQhzw1DH6TcYTrtDjCy-272" value="&lt;b&gt;int&lt;/b&gt;" style="shape=partialRectangle;connectable=0;fillColor=none;top=0;left=0;bottom=0;right=0;editable=1;overflow=hidden;whiteSpace=wrap;html=1;fontFamily=Lucida Console;fontSize=15;align=center;" vertex="1" parent="BOQhzw1DH6TcYTrtDjCy-271">
          <mxGeometry width="160" height="30" as="geometry">
            <mxRectangle width="160" height="30" as="alternateBounds" />
          </mxGeometry>
        </mxCell>
        <mxCell id="BOQhzw1DH6TcYTrtDjCy-273" value="user_id" style="shape=partialRectangle;connectable=0;fillColor=none;top=0;left=0;bottom=0;right=0;align=center;spacingLeft=6;overflow=hidden;whiteSpace=wrap;html=1;fontFamily=Lucida Console;fontSize=15;" vertex="1" parent="BOQhzw1DH6TcYTrtDjCy-271">
          <mxGeometry x="160" width="160" height="30" as="geometry">
            <mxRectangle width="160" height="30" as="alternateBounds" />
          </mxGeometry>
        </mxCell>
        <mxCell id="BOQhzw1DH6TcYTrtDjCy-274" value="" style="shape=tableRow;horizontal=0;startSize=0;swimlaneHead=0;swimlaneBody=0;fillColor=none;collapsible=0;dropTarget=0;points=[[0,0.5],[1,0.5]];portConstraint=eastwest;top=0;left=0;right=0;bottom=0;fontFamily=Lucida Console;fontSize=15;align=center;" vertex="1" parent="BOQhzw1DH6TcYTrtDjCy-258">
          <mxGeometry y="180" width="320" height="30" as="geometry" />
        </mxCell>
        <mxCell id="BOQhzw1DH6TcYTrtDjCy-275" value="&lt;b&gt;int&lt;/b&gt;" style="shape=partialRectangle;connectable=0;fillColor=none;top=0;left=0;bottom=0;right=0;editable=1;overflow=hidden;whiteSpace=wrap;html=1;fontFamily=Lucida Console;fontSize=15;align=center;" vertex="1" parent="BOQhzw1DH6TcYTrtDjCy-274">
          <mxGeometry width="160" height="30" as="geometry">
            <mxRectangle width="160" height="30" as="alternateBounds" />
          </mxGeometry>
        </mxCell>
        <mxCell id="BOQhzw1DH6TcYTrtDjCy-276" value="dept_id" style="shape=partialRectangle;connectable=0;fillColor=none;top=0;left=0;bottom=0;right=0;align=center;spacingLeft=6;overflow=hidden;whiteSpace=wrap;html=1;fontFamily=Lucida Console;fontSize=15;" vertex="1" parent="BOQhzw1DH6TcYTrtDjCy-274">
          <mxGeometry x="160" width="160" height="30" as="geometry">
            <mxRectangle width="160" height="30" as="alternateBounds" />
          </mxGeometry>
        </mxCell>
        <mxCell id="BOQhzw1DH6TcYTrtDjCy-277" value="" style="shape=tableRow;horizontal=0;startSize=0;swimlaneHead=0;swimlaneBody=0;fillColor=none;collapsible=0;dropTarget=0;points=[[0,0.5],[1,0.5]];portConstraint=eastwest;top=0;left=0;right=0;bottom=0;fontFamily=Lucida Console;fontSize=15;align=center;" vertex="1" parent="BOQhzw1DH6TcYTrtDjCy-258">
          <mxGeometry y="210" width="320" height="30" as="geometry" />
        </mxCell>
        <mxCell id="BOQhzw1DH6TcYTrtDjCy-278" value="&lt;b&gt;int&lt;/b&gt;" style="shape=partialRectangle;connectable=0;fillColor=none;top=0;left=0;bottom=0;right=0;editable=1;overflow=hidden;whiteSpace=wrap;html=1;fontFamily=Lucida Console;fontSize=15;align=center;" vertex="1" parent="BOQhzw1DH6TcYTrtDjCy-277">
          <mxGeometry width="160" height="30" as="geometry">
            <mxRectangle width="160" height="30" as="alternateBounds" />
          </mxGeometry>
        </mxCell>
        <mxCell id="BOQhzw1DH6TcYTrtDjCy-279" value="acccreated" style="shape=partialRectangle;connectable=0;fillColor=none;top=0;left=0;bottom=0;right=0;align=center;spacingLeft=6;overflow=hidden;whiteSpace=wrap;html=1;fontFamily=Lucida Console;fontSize=15;" vertex="1" parent="BOQhzw1DH6TcYTrtDjCy-277">
          <mxGeometry x="160" width="160" height="30" as="geometry">
            <mxRectangle width="160" height="30" as="alternateBounds" />
          </mxGeometry>
        </mxCell>
        <mxCell id="BOQhzw1DH6TcYTrtDjCy-280" value="" style="shape=tableRow;horizontal=0;startSize=0;swimlaneHead=0;swimlaneBody=0;fillColor=none;collapsible=0;dropTarget=0;points=[[0,0.5],[1,0.5]];portConstraint=eastwest;top=0;left=0;right=0;bottom=0;fontFamily=Lucida Console;fontSize=15;align=center;" vertex="1" parent="BOQhzw1DH6TcYTrtDjCy-258">
          <mxGeometry y="240" width="320" height="30" as="geometry" />
        </mxCell>
        <mxCell id="BOQhzw1DH6TcYTrtDjCy-281" value="&lt;b&gt;varchar(255)&lt;/b&gt;" style="shape=partialRectangle;connectable=0;fillColor=none;top=0;left=0;bottom=0;right=0;editable=1;overflow=hidden;whiteSpace=wrap;html=1;fontFamily=Lucida Console;fontSize=15;align=center;" vertex="1" parent="BOQhzw1DH6TcYTrtDjCy-280">
          <mxGeometry width="160" height="30" as="geometry">
            <mxRectangle width="160" height="30" as="alternateBounds" />
          </mxGeometry>
        </mxCell>
        <mxCell id="BOQhzw1DH6TcYTrtDjCy-282" value="profile" style="shape=partialRectangle;connectable=0;fillColor=none;top=0;left=0;bottom=0;right=0;align=center;spacingLeft=6;overflow=hidden;whiteSpace=wrap;html=1;fontFamily=Lucida Console;fontSize=15;" vertex="1" parent="BOQhzw1DH6TcYTrtDjCy-280">
          <mxGeometry x="160" width="160" height="30" as="geometry">
            <mxRectangle width="160" height="30" as="alternateBounds" />
          </mxGeometry>
        </mxCell>
        <mxCell id="BOQhzw1DH6TcYTrtDjCy-289" value="MonitoringInfo" style="shape=table;startSize=30;container=1;collapsible=1;childLayout=tableLayout;fixedRows=1;rowLines=0;fontStyle=1;align=center;resizeLast=1;html=1;fontFamily=Lucida Console;fontSize=15;rounded=0;swimlaneLine=1;" vertex="1" parent="1">
          <mxGeometry x="1850" y="50" width="320" height="240" as="geometry" />
        </mxCell>
        <mxCell id="BOQhzw1DH6TcYTrtDjCy-290" value="" style="shape=tableRow;horizontal=0;startSize=0;swimlaneHead=0;swimlaneBody=0;fillColor=none;collapsible=0;dropTarget=0;points=[[0,0.5],[1,0.5]];portConstraint=eastwest;top=0;left=0;right=0;bottom=1;fontFamily=Lucida Console;fontSize=15;align=center;" vertex="1" parent="BOQhzw1DH6TcYTrtDjCy-289">
          <mxGeometry y="30" width="320" height="30" as="geometry" />
        </mxCell>
        <mxCell id="BOQhzw1DH6TcYTrtDjCy-291" value="int" style="shape=partialRectangle;connectable=0;fillColor=none;top=0;left=0;bottom=0;right=0;fontStyle=1;overflow=hidden;whiteSpace=wrap;html=1;fontFamily=Lucida Console;fontSize=15;align=center;" vertex="1" parent="BOQhzw1DH6TcYTrtDjCy-290">
          <mxGeometry width="160" height="30" as="geometry">
            <mxRectangle width="160" height="30" as="alternateBounds" />
          </mxGeometry>
        </mxCell>
        <mxCell id="BOQhzw1DH6TcYTrtDjCy-292" value="id" style="shape=partialRectangle;connectable=0;fillColor=none;top=0;left=0;bottom=0;right=0;align=center;spacingLeft=6;fontStyle=5;overflow=hidden;whiteSpace=wrap;html=1;fontFamily=Lucida Console;fontSize=15;" vertex="1" parent="BOQhzw1DH6TcYTrtDjCy-290">
          <mxGeometry x="160" width="160" height="30" as="geometry">
            <mxRectangle width="160" height="30" as="alternateBounds" />
          </mxGeometry>
        </mxCell>
        <mxCell id="BOQhzw1DH6TcYTrtDjCy-293" value="" style="shape=tableRow;horizontal=0;startSize=0;swimlaneHead=0;swimlaneBody=0;fillColor=none;collapsible=0;dropTarget=0;points=[[0,0.5],[1,0.5]];portConstraint=eastwest;top=0;left=0;right=0;bottom=0;fontFamily=Lucida Console;fontSize=15;align=center;" vertex="1" parent="BOQhzw1DH6TcYTrtDjCy-289">
          <mxGeometry y="60" width="320" height="30" as="geometry" />
        </mxCell>
        <mxCell id="BOQhzw1DH6TcYTrtDjCy-294" value="&lt;b&gt;varchar(50)&lt;/b&gt;" style="shape=partialRectangle;connectable=0;fillColor=none;top=0;left=0;bottom=0;right=0;editable=1;overflow=hidden;whiteSpace=wrap;html=1;fontFamily=Lucida Console;fontSize=15;align=center;" vertex="1" parent="BOQhzw1DH6TcYTrtDjCy-293">
          <mxGeometry width="160" height="30" as="geometry">
            <mxRectangle width="160" height="30" as="alternateBounds" />
          </mxGeometry>
        </mxCell>
        <mxCell id="BOQhzw1DH6TcYTrtDjCy-295" value="surname" style="shape=partialRectangle;connectable=0;fillColor=none;top=0;left=0;bottom=0;right=0;align=center;spacingLeft=6;overflow=hidden;whiteSpace=wrap;html=1;fontFamily=Lucida Console;fontSize=15;" vertex="1" parent="BOQhzw1DH6TcYTrtDjCy-293">
          <mxGeometry x="160" width="160" height="30" as="geometry">
            <mxRectangle width="160" height="30" as="alternateBounds" />
          </mxGeometry>
        </mxCell>
        <mxCell id="BOQhzw1DH6TcYTrtDjCy-296" value="" style="shape=tableRow;horizontal=0;startSize=0;swimlaneHead=0;swimlaneBody=0;fillColor=none;collapsible=0;dropTarget=0;points=[[0,0.5],[1,0.5]];portConstraint=eastwest;top=0;left=0;right=0;bottom=0;fontFamily=Lucida Console;fontSize=15;align=center;" vertex="1" parent="BOQhzw1DH6TcYTrtDjCy-289">
          <mxGeometry y="90" width="320" height="30" as="geometry" />
        </mxCell>
        <mxCell id="BOQhzw1DH6TcYTrtDjCy-297" value="&lt;b&gt;varchar(50)&lt;/b&gt;" style="shape=partialRectangle;connectable=0;fillColor=none;top=0;left=0;bottom=0;right=0;editable=1;overflow=hidden;whiteSpace=wrap;html=1;fontStyle=1;fontFamily=Lucida Console;fontSize=15;align=center;" vertex="1" parent="BOQhzw1DH6TcYTrtDjCy-296">
          <mxGeometry width="160" height="30" as="geometry">
            <mxRectangle width="160" height="30" as="alternateBounds" />
          </mxGeometry>
        </mxCell>
        <mxCell id="BOQhzw1DH6TcYTrtDjCy-298" value="firstname" style="shape=partialRectangle;connectable=0;fillColor=none;top=0;left=0;bottom=0;right=0;align=center;spacingLeft=6;overflow=hidden;whiteSpace=wrap;html=1;fontFamily=Lucida Console;fontSize=15;" vertex="1" parent="BOQhzw1DH6TcYTrtDjCy-296">
          <mxGeometry x="160" width="160" height="30" as="geometry">
            <mxRectangle width="160" height="30" as="alternateBounds" />
          </mxGeometry>
        </mxCell>
        <mxCell id="BOQhzw1DH6TcYTrtDjCy-299" value="" style="shape=tableRow;horizontal=0;startSize=0;swimlaneHead=0;swimlaneBody=0;fillColor=none;collapsible=0;dropTarget=0;points=[[0,0.5],[1,0.5]];portConstraint=eastwest;top=0;left=0;right=0;bottom=0;fontFamily=Lucida Console;fontSize=15;align=center;" vertex="1" parent="BOQhzw1DH6TcYTrtDjCy-289">
          <mxGeometry y="120" width="320" height="30" as="geometry" />
        </mxCell>
        <mxCell id="BOQhzw1DH6TcYTrtDjCy-300" value="&lt;b&gt;varchar(50)&lt;/b&gt;" style="shape=partialRectangle;connectable=0;fillColor=none;top=0;left=0;bottom=0;right=0;editable=1;overflow=hidden;whiteSpace=wrap;html=1;fontFamily=Lucida Console;fontSize=15;align=center;" vertex="1" parent="BOQhzw1DH6TcYTrtDjCy-299">
          <mxGeometry width="160" height="30" as="geometry">
            <mxRectangle width="160" height="30" as="alternateBounds" />
          </mxGeometry>
        </mxCell>
        <mxCell id="BOQhzw1DH6TcYTrtDjCy-301" value="email" style="shape=partialRectangle;connectable=0;fillColor=none;top=0;left=0;bottom=0;right=0;align=center;spacingLeft=6;overflow=hidden;whiteSpace=wrap;html=1;fontFamily=Lucida Console;fontSize=15;" vertex="1" parent="BOQhzw1DH6TcYTrtDjCy-299">
          <mxGeometry x="160" width="160" height="30" as="geometry">
            <mxRectangle width="160" height="30" as="alternateBounds" />
          </mxGeometry>
        </mxCell>
        <mxCell id="BOQhzw1DH6TcYTrtDjCy-302" value="" style="shape=tableRow;horizontal=0;startSize=0;swimlaneHead=0;swimlaneBody=0;fillColor=none;collapsible=0;dropTarget=0;points=[[0,0.5],[1,0.5]];portConstraint=eastwest;top=0;left=0;right=0;bottom=0;fontFamily=Lucida Console;fontSize=15;align=center;" vertex="1" parent="BOQhzw1DH6TcYTrtDjCy-289">
          <mxGeometry y="150" width="320" height="30" as="geometry" />
        </mxCell>
        <mxCell id="BOQhzw1DH6TcYTrtDjCy-303" value="&lt;b&gt;int&lt;/b&gt;" style="shape=partialRectangle;connectable=0;fillColor=none;top=0;left=0;bottom=0;right=0;editable=1;overflow=hidden;whiteSpace=wrap;html=1;fontFamily=Lucida Console;fontSize=15;align=center;" vertex="1" parent="BOQhzw1DH6TcYTrtDjCy-302">
          <mxGeometry width="160" height="30" as="geometry">
            <mxRectangle width="160" height="30" as="alternateBounds" />
          </mxGeometry>
        </mxCell>
        <mxCell id="BOQhzw1DH6TcYTrtDjCy-304" value="user_id" style="shape=partialRectangle;connectable=0;fillColor=none;top=0;left=0;bottom=0;right=0;align=center;spacingLeft=6;overflow=hidden;whiteSpace=wrap;html=1;fontFamily=Lucida Console;fontSize=15;" vertex="1" parent="BOQhzw1DH6TcYTrtDjCy-302">
          <mxGeometry x="160" width="160" height="30" as="geometry">
            <mxRectangle width="160" height="30" as="alternateBounds" />
          </mxGeometry>
        </mxCell>
        <mxCell id="BOQhzw1DH6TcYTrtDjCy-305" value="" style="shape=tableRow;horizontal=0;startSize=0;swimlaneHead=0;swimlaneBody=0;fillColor=none;collapsible=0;dropTarget=0;points=[[0,0.5],[1,0.5]];portConstraint=eastwest;top=0;left=0;right=0;bottom=0;fontFamily=Lucida Console;fontSize=15;align=center;" vertex="1" parent="BOQhzw1DH6TcYTrtDjCy-289">
          <mxGeometry y="180" width="320" height="30" as="geometry" />
        </mxCell>
        <mxCell id="BOQhzw1DH6TcYTrtDjCy-306" value="&lt;b&gt;date&lt;/b&gt;" style="shape=partialRectangle;connectable=0;fillColor=none;top=0;left=0;bottom=0;right=0;editable=1;overflow=hidden;whiteSpace=wrap;html=1;fontFamily=Lucida Console;fontSize=15;align=center;" vertex="1" parent="BOQhzw1DH6TcYTrtDjCy-305">
          <mxGeometry width="160" height="30" as="geometry">
            <mxRectangle width="160" height="30" as="alternateBounds" />
          </mxGeometry>
        </mxCell>
        <mxCell id="BOQhzw1DH6TcYTrtDjCy-307" value="dutydate" style="shape=partialRectangle;connectable=0;fillColor=none;top=0;left=0;bottom=0;right=0;align=center;spacingLeft=6;overflow=hidden;whiteSpace=wrap;html=1;fontFamily=Lucida Console;fontSize=15;" vertex="1" parent="BOQhzw1DH6TcYTrtDjCy-305">
          <mxGeometry x="160" width="160" height="30" as="geometry">
            <mxRectangle width="160" height="30" as="alternateBounds" />
          </mxGeometry>
        </mxCell>
        <mxCell id="BOQhzw1DH6TcYTrtDjCy-311" value="" style="shape=tableRow;horizontal=0;startSize=0;swimlaneHead=0;swimlaneBody=0;fillColor=none;collapsible=0;dropTarget=0;points=[[0,0.5],[1,0.5]];portConstraint=eastwest;top=0;left=0;right=0;bottom=0;fontFamily=Lucida Console;fontSize=15;align=center;" vertex="1" parent="BOQhzw1DH6TcYTrtDjCy-289">
          <mxGeometry y="210" width="320" height="30" as="geometry" />
        </mxCell>
        <mxCell id="BOQhzw1DH6TcYTrtDjCy-312" value="&lt;b&gt;varchar(255)&lt;/b&gt;" style="shape=partialRectangle;connectable=0;fillColor=none;top=0;left=0;bottom=0;right=0;editable=1;overflow=hidden;whiteSpace=wrap;html=1;fontFamily=Lucida Console;fontSize=15;align=center;" vertex="1" parent="BOQhzw1DH6TcYTrtDjCy-311">
          <mxGeometry width="160" height="30" as="geometry">
            <mxRectangle width="160" height="30" as="alternateBounds" />
          </mxGeometry>
        </mxCell>
        <mxCell id="BOQhzw1DH6TcYTrtDjCy-313" value="profile" style="shape=partialRectangle;connectable=0;fillColor=none;top=0;left=0;bottom=0;right=0;align=center;spacingLeft=6;overflow=hidden;whiteSpace=wrap;html=1;fontFamily=Lucida Console;fontSize=15;" vertex="1" parent="BOQhzw1DH6TcYTrtDjCy-311">
          <mxGeometry x="160" width="160" height="30" as="geometry">
            <mxRectangle width="160" height="30" as="alternateBounds" />
          </mxGeometry>
        </mxCell>
        <mxCell id="BOQhzw1DH6TcYTrtDjCy-320" value="Reports" style="shape=table;startSize=30;container=1;collapsible=1;childLayout=tableLayout;fixedRows=1;rowLines=0;fontStyle=1;align=center;resizeLast=1;html=1;fontFamily=Lucida Console;fontSize=15;rounded=0;swimlaneLine=1;" vertex="1" parent="1">
          <mxGeometry x="1140" y="1080" width="320" height="180" as="geometry" />
        </mxCell>
        <mxCell id="BOQhzw1DH6TcYTrtDjCy-321" value="" style="shape=tableRow;horizontal=0;startSize=0;swimlaneHead=0;swimlaneBody=0;fillColor=none;collapsible=0;dropTarget=0;points=[[0,0.5],[1,0.5]];portConstraint=eastwest;top=0;left=0;right=0;bottom=1;fontFamily=Lucida Console;fontSize=15;align=center;" vertex="1" parent="BOQhzw1DH6TcYTrtDjCy-320">
          <mxGeometry y="30" width="320" height="30" as="geometry" />
        </mxCell>
        <mxCell id="BOQhzw1DH6TcYTrtDjCy-322" value="int" style="shape=partialRectangle;connectable=0;fillColor=none;top=0;left=0;bottom=0;right=0;fontStyle=1;overflow=hidden;whiteSpace=wrap;html=1;fontFamily=Lucida Console;fontSize=15;align=center;" vertex="1" parent="BOQhzw1DH6TcYTrtDjCy-321">
          <mxGeometry width="160" height="30" as="geometry">
            <mxRectangle width="160" height="30" as="alternateBounds" />
          </mxGeometry>
        </mxCell>
        <mxCell id="BOQhzw1DH6TcYTrtDjCy-323" value="id" style="shape=partialRectangle;connectable=0;fillColor=none;top=0;left=0;bottom=0;right=0;align=center;spacingLeft=6;fontStyle=5;overflow=hidden;whiteSpace=wrap;html=1;fontFamily=Lucida Console;fontSize=15;" vertex="1" parent="BOQhzw1DH6TcYTrtDjCy-321">
          <mxGeometry x="160" width="160" height="30" as="geometry">
            <mxRectangle width="160" height="30" as="alternateBounds" />
          </mxGeometry>
        </mxCell>
        <mxCell id="BOQhzw1DH6TcYTrtDjCy-324" value="" style="shape=tableRow;horizontal=0;startSize=0;swimlaneHead=0;swimlaneBody=0;fillColor=none;collapsible=0;dropTarget=0;points=[[0,0.5],[1,0.5]];portConstraint=eastwest;top=0;left=0;right=0;bottom=0;fontFamily=Lucida Console;fontSize=15;align=center;" vertex="1" parent="BOQhzw1DH6TcYTrtDjCy-320">
          <mxGeometry y="60" width="320" height="30" as="geometry" />
        </mxCell>
        <mxCell id="BOQhzw1DH6TcYTrtDjCy-325" value="&lt;b&gt;varchar(255)&lt;/b&gt;" style="shape=partialRectangle;connectable=0;fillColor=none;top=0;left=0;bottom=0;right=0;editable=1;overflow=hidden;whiteSpace=wrap;html=1;fontFamily=Lucida Console;fontSize=15;align=center;" vertex="1" parent="BOQhzw1DH6TcYTrtDjCy-324">
          <mxGeometry width="160" height="30" as="geometry">
            <mxRectangle width="160" height="30" as="alternateBounds" />
          </mxGeometry>
        </mxCell>
        <mxCell id="BOQhzw1DH6TcYTrtDjCy-326" value="report" style="shape=partialRectangle;connectable=0;fillColor=none;top=0;left=0;bottom=0;right=0;align=center;spacingLeft=6;overflow=hidden;whiteSpace=wrap;html=1;fontFamily=Lucida Console;fontSize=15;" vertex="1" parent="BOQhzw1DH6TcYTrtDjCy-324">
          <mxGeometry x="160" width="160" height="30" as="geometry">
            <mxRectangle width="160" height="30" as="alternateBounds" />
          </mxGeometry>
        </mxCell>
        <mxCell id="BOQhzw1DH6TcYTrtDjCy-327" value="" style="shape=tableRow;horizontal=0;startSize=0;swimlaneHead=0;swimlaneBody=0;fillColor=none;collapsible=0;dropTarget=0;points=[[0,0.5],[1,0.5]];portConstraint=eastwest;top=0;left=0;right=0;bottom=0;fontFamily=Lucida Console;fontSize=15;align=center;" vertex="1" parent="BOQhzw1DH6TcYTrtDjCy-320">
          <mxGeometry y="90" width="320" height="30" as="geometry" />
        </mxCell>
        <mxCell id="BOQhzw1DH6TcYTrtDjCy-328" value="&lt;b&gt;varchar(50)&lt;/b&gt;" style="shape=partialRectangle;connectable=0;fillColor=none;top=0;left=0;bottom=0;right=0;editable=1;overflow=hidden;whiteSpace=wrap;html=1;fontStyle=1;fontFamily=Lucida Console;fontSize=15;align=center;" vertex="1" parent="BOQhzw1DH6TcYTrtDjCy-327">
          <mxGeometry width="160" height="30" as="geometry">
            <mxRectangle width="160" height="30" as="alternateBounds" />
          </mxGeometry>
        </mxCell>
        <mxCell id="BOQhzw1DH6TcYTrtDjCy-329" value="typereport" style="shape=partialRectangle;connectable=0;fillColor=none;top=0;left=0;bottom=0;right=0;align=center;spacingLeft=6;overflow=hidden;whiteSpace=wrap;html=1;fontFamily=Lucida Console;fontSize=15;" vertex="1" parent="BOQhzw1DH6TcYTrtDjCy-327">
          <mxGeometry x="160" width="160" height="30" as="geometry">
            <mxRectangle width="160" height="30" as="alternateBounds" />
          </mxGeometry>
        </mxCell>
        <mxCell id="BOQhzw1DH6TcYTrtDjCy-330" value="" style="shape=tableRow;horizontal=0;startSize=0;swimlaneHead=0;swimlaneBody=0;fillColor=none;collapsible=0;dropTarget=0;points=[[0,0.5],[1,0.5]];portConstraint=eastwest;top=0;left=0;right=0;bottom=0;fontFamily=Lucida Console;fontSize=15;align=center;" vertex="1" parent="BOQhzw1DH6TcYTrtDjCy-320">
          <mxGeometry y="120" width="320" height="30" as="geometry" />
        </mxCell>
        <mxCell id="BOQhzw1DH6TcYTrtDjCy-331" value="&lt;b&gt;int&lt;/b&gt;" style="shape=partialRectangle;connectable=0;fillColor=none;top=0;left=0;bottom=0;right=0;editable=1;overflow=hidden;whiteSpace=wrap;html=1;fontFamily=Lucida Console;fontSize=15;align=center;" vertex="1" parent="BOQhzw1DH6TcYTrtDjCy-330">
          <mxGeometry width="160" height="30" as="geometry">
            <mxRectangle width="160" height="30" as="alternateBounds" />
          </mxGeometry>
        </mxCell>
        <mxCell id="BOQhzw1DH6TcYTrtDjCy-332" value="user_id" style="shape=partialRectangle;connectable=0;fillColor=none;top=0;left=0;bottom=0;right=0;align=center;spacingLeft=6;overflow=hidden;whiteSpace=wrap;html=1;fontFamily=Lucida Console;fontSize=15;" vertex="1" parent="BOQhzw1DH6TcYTrtDjCy-330">
          <mxGeometry x="160" width="160" height="30" as="geometry">
            <mxRectangle width="160" height="30" as="alternateBounds" />
          </mxGeometry>
        </mxCell>
        <mxCell id="BOQhzw1DH6TcYTrtDjCy-333" value="" style="shape=tableRow;horizontal=0;startSize=0;swimlaneHead=0;swimlaneBody=0;fillColor=none;collapsible=0;dropTarget=0;points=[[0,0.5],[1,0.5]];portConstraint=eastwest;top=0;left=0;right=0;bottom=0;fontFamily=Lucida Console;fontSize=15;align=center;" vertex="1" parent="BOQhzw1DH6TcYTrtDjCy-320">
          <mxGeometry y="150" width="320" height="30" as="geometry" />
        </mxCell>
        <mxCell id="BOQhzw1DH6TcYTrtDjCy-334" value="&lt;b&gt;date&lt;/b&gt;" style="shape=partialRectangle;connectable=0;fillColor=none;top=0;left=0;bottom=0;right=0;editable=1;overflow=hidden;whiteSpace=wrap;html=1;fontFamily=Lucida Console;fontSize=15;align=center;" vertex="1" parent="BOQhzw1DH6TcYTrtDjCy-333">
          <mxGeometry width="160" height="30" as="geometry">
            <mxRectangle width="160" height="30" as="alternateBounds" />
          </mxGeometry>
        </mxCell>
        <mxCell id="BOQhzw1DH6TcYTrtDjCy-335" value="datesent" style="shape=partialRectangle;connectable=0;fillColor=none;top=0;left=0;bottom=0;right=0;align=center;spacingLeft=6;overflow=hidden;whiteSpace=wrap;html=1;fontFamily=Lucida Console;fontSize=15;" vertex="1" parent="BOQhzw1DH6TcYTrtDjCy-333">
          <mxGeometry x="160" width="160" height="30" as="geometry">
            <mxRectangle width="160" height="30" as="alternateBounds" />
          </mxGeometry>
        </mxCell>
        <mxCell id="BOQhzw1DH6TcYTrtDjCy-351" value="DeptPersonnel" style="shape=table;startSize=30;container=1;collapsible=1;childLayout=tableLayout;fixedRows=1;rowLines=0;fontStyle=1;align=center;resizeLast=1;html=1;fontFamily=Lucida Console;fontSize=15;rounded=0;swimlaneLine=1;" vertex="1" parent="1">
          <mxGeometry x="1140" y="760" width="320" height="240" as="geometry" />
        </mxCell>
        <mxCell id="BOQhzw1DH6TcYTrtDjCy-352" value="" style="shape=tableRow;horizontal=0;startSize=0;swimlaneHead=0;swimlaneBody=0;fillColor=none;collapsible=0;dropTarget=0;points=[[0,0.5],[1,0.5]];portConstraint=eastwest;top=0;left=0;right=0;bottom=1;fontFamily=Lucida Console;fontSize=15;align=center;" vertex="1" parent="BOQhzw1DH6TcYTrtDjCy-351">
          <mxGeometry y="30" width="320" height="30" as="geometry" />
        </mxCell>
        <mxCell id="BOQhzw1DH6TcYTrtDjCy-353" value="int" style="shape=partialRectangle;connectable=0;fillColor=none;top=0;left=0;bottom=0;right=0;fontStyle=1;overflow=hidden;whiteSpace=wrap;html=1;fontFamily=Lucida Console;fontSize=15;align=center;" vertex="1" parent="BOQhzw1DH6TcYTrtDjCy-352">
          <mxGeometry width="160" height="30" as="geometry">
            <mxRectangle width="160" height="30" as="alternateBounds" />
          </mxGeometry>
        </mxCell>
        <mxCell id="BOQhzw1DH6TcYTrtDjCy-354" value="id" style="shape=partialRectangle;connectable=0;fillColor=none;top=0;left=0;bottom=0;right=0;align=center;spacingLeft=6;fontStyle=5;overflow=hidden;whiteSpace=wrap;html=1;fontFamily=Lucida Console;fontSize=15;" vertex="1" parent="BOQhzw1DH6TcYTrtDjCy-352">
          <mxGeometry x="160" width="160" height="30" as="geometry">
            <mxRectangle width="160" height="30" as="alternateBounds" />
          </mxGeometry>
        </mxCell>
        <mxCell id="BOQhzw1DH6TcYTrtDjCy-355" value="" style="shape=tableRow;horizontal=0;startSize=0;swimlaneHead=0;swimlaneBody=0;fillColor=none;collapsible=0;dropTarget=0;points=[[0,0.5],[1,0.5]];portConstraint=eastwest;top=0;left=0;right=0;bottom=0;fontFamily=Lucida Console;fontSize=15;align=center;" vertex="1" parent="BOQhzw1DH6TcYTrtDjCy-351">
          <mxGeometry y="60" width="320" height="30" as="geometry" />
        </mxCell>
        <mxCell id="BOQhzw1DH6TcYTrtDjCy-356" value="&lt;b&gt;varchar(50)&lt;/b&gt;" style="shape=partialRectangle;connectable=0;fillColor=none;top=0;left=0;bottom=0;right=0;editable=1;overflow=hidden;whiteSpace=wrap;html=1;fontFamily=Lucida Console;fontSize=15;align=center;" vertex="1" parent="BOQhzw1DH6TcYTrtDjCy-355">
          <mxGeometry width="160" height="30" as="geometry">
            <mxRectangle width="160" height="30" as="alternateBounds" />
          </mxGeometry>
        </mxCell>
        <mxCell id="BOQhzw1DH6TcYTrtDjCy-357" value="surname" style="shape=partialRectangle;connectable=0;fillColor=none;top=0;left=0;bottom=0;right=0;align=center;spacingLeft=6;overflow=hidden;whiteSpace=wrap;html=1;fontFamily=Lucida Console;fontSize=15;" vertex="1" parent="BOQhzw1DH6TcYTrtDjCy-355">
          <mxGeometry x="160" width="160" height="30" as="geometry">
            <mxRectangle width="160" height="30" as="alternateBounds" />
          </mxGeometry>
        </mxCell>
        <mxCell id="BOQhzw1DH6TcYTrtDjCy-358" value="" style="shape=tableRow;horizontal=0;startSize=0;swimlaneHead=0;swimlaneBody=0;fillColor=none;collapsible=0;dropTarget=0;points=[[0,0.5],[1,0.5]];portConstraint=eastwest;top=0;left=0;right=0;bottom=0;fontFamily=Lucida Console;fontSize=15;align=center;" vertex="1" parent="BOQhzw1DH6TcYTrtDjCy-351">
          <mxGeometry y="90" width="320" height="30" as="geometry" />
        </mxCell>
        <mxCell id="BOQhzw1DH6TcYTrtDjCy-359" value="&lt;b&gt;varchar(50)&lt;/b&gt;" style="shape=partialRectangle;connectable=0;fillColor=none;top=0;left=0;bottom=0;right=0;editable=1;overflow=hidden;whiteSpace=wrap;html=1;fontStyle=1;fontFamily=Lucida Console;fontSize=15;align=center;" vertex="1" parent="BOQhzw1DH6TcYTrtDjCy-358">
          <mxGeometry width="160" height="30" as="geometry">
            <mxRectangle width="160" height="30" as="alternateBounds" />
          </mxGeometry>
        </mxCell>
        <mxCell id="BOQhzw1DH6TcYTrtDjCy-360" value="firstname" style="shape=partialRectangle;connectable=0;fillColor=none;top=0;left=0;bottom=0;right=0;align=center;spacingLeft=6;overflow=hidden;whiteSpace=wrap;html=1;fontFamily=Lucida Console;fontSize=15;" vertex="1" parent="BOQhzw1DH6TcYTrtDjCy-358">
          <mxGeometry x="160" width="160" height="30" as="geometry">
            <mxRectangle width="160" height="30" as="alternateBounds" />
          </mxGeometry>
        </mxCell>
        <mxCell id="BOQhzw1DH6TcYTrtDjCy-361" value="" style="shape=tableRow;horizontal=0;startSize=0;swimlaneHead=0;swimlaneBody=0;fillColor=none;collapsible=0;dropTarget=0;points=[[0,0.5],[1,0.5]];portConstraint=eastwest;top=0;left=0;right=0;bottom=0;fontFamily=Lucida Console;fontSize=15;align=center;" vertex="1" parent="BOQhzw1DH6TcYTrtDjCy-351">
          <mxGeometry y="120" width="320" height="30" as="geometry" />
        </mxCell>
        <mxCell id="BOQhzw1DH6TcYTrtDjCy-362" value="&lt;b&gt;varchar(50)&lt;/b&gt;" style="shape=partialRectangle;connectable=0;fillColor=none;top=0;left=0;bottom=0;right=0;editable=1;overflow=hidden;whiteSpace=wrap;html=1;fontFamily=Lucida Console;fontSize=15;align=center;" vertex="1" parent="BOQhzw1DH6TcYTrtDjCy-361">
          <mxGeometry width="160" height="30" as="geometry">
            <mxRectangle width="160" height="30" as="alternateBounds" />
          </mxGeometry>
        </mxCell>
        <mxCell id="BOQhzw1DH6TcYTrtDjCy-363" value="email" style="shape=partialRectangle;connectable=0;fillColor=none;top=0;left=0;bottom=0;right=0;align=center;spacingLeft=6;overflow=hidden;whiteSpace=wrap;html=1;fontFamily=Lucida Console;fontSize=15;" vertex="1" parent="BOQhzw1DH6TcYTrtDjCy-361">
          <mxGeometry x="160" width="160" height="30" as="geometry">
            <mxRectangle width="160" height="30" as="alternateBounds" />
          </mxGeometry>
        </mxCell>
        <mxCell id="BOQhzw1DH6TcYTrtDjCy-364" value="" style="shape=tableRow;horizontal=0;startSize=0;swimlaneHead=0;swimlaneBody=0;fillColor=none;collapsible=0;dropTarget=0;points=[[0,0.5],[1,0.5]];portConstraint=eastwest;top=0;left=0;right=0;bottom=0;fontFamily=Lucida Console;fontSize=15;align=center;" vertex="1" parent="BOQhzw1DH6TcYTrtDjCy-351">
          <mxGeometry y="150" width="320" height="30" as="geometry" />
        </mxCell>
        <mxCell id="BOQhzw1DH6TcYTrtDjCy-365" value="&lt;b&gt;int&lt;/b&gt;" style="shape=partialRectangle;connectable=0;fillColor=none;top=0;left=0;bottom=0;right=0;editable=1;overflow=hidden;whiteSpace=wrap;html=1;fontFamily=Lucida Console;fontSize=15;align=center;" vertex="1" parent="BOQhzw1DH6TcYTrtDjCy-364">
          <mxGeometry width="160" height="30" as="geometry">
            <mxRectangle width="160" height="30" as="alternateBounds" />
          </mxGeometry>
        </mxCell>
        <mxCell id="BOQhzw1DH6TcYTrtDjCy-366" value="user_id" style="shape=partialRectangle;connectable=0;fillColor=none;top=0;left=0;bottom=0;right=0;align=center;spacingLeft=6;overflow=hidden;whiteSpace=wrap;html=1;fontFamily=Lucida Console;fontSize=15;" vertex="1" parent="BOQhzw1DH6TcYTrtDjCy-364">
          <mxGeometry x="160" width="160" height="30" as="geometry">
            <mxRectangle width="160" height="30" as="alternateBounds" />
          </mxGeometry>
        </mxCell>
        <mxCell id="BOQhzw1DH6TcYTrtDjCy-367" value="" style="shape=tableRow;horizontal=0;startSize=0;swimlaneHead=0;swimlaneBody=0;fillColor=none;collapsible=0;dropTarget=0;points=[[0,0.5],[1,0.5]];portConstraint=eastwest;top=0;left=0;right=0;bottom=0;fontFamily=Lucida Console;fontSize=15;align=center;" vertex="1" parent="BOQhzw1DH6TcYTrtDjCy-351">
          <mxGeometry y="180" width="320" height="30" as="geometry" />
        </mxCell>
        <mxCell id="BOQhzw1DH6TcYTrtDjCy-368" value="&lt;b&gt;int&lt;/b&gt;" style="shape=partialRectangle;connectable=0;fillColor=none;top=0;left=0;bottom=0;right=0;editable=1;overflow=hidden;whiteSpace=wrap;html=1;fontFamily=Lucida Console;fontSize=15;align=center;" vertex="1" parent="BOQhzw1DH6TcYTrtDjCy-367">
          <mxGeometry width="160" height="30" as="geometry">
            <mxRectangle width="160" height="30" as="alternateBounds" />
          </mxGeometry>
        </mxCell>
        <mxCell id="BOQhzw1DH6TcYTrtDjCy-369" value="dept_id" style="shape=partialRectangle;connectable=0;fillColor=none;top=0;left=0;bottom=0;right=0;align=center;spacingLeft=6;overflow=hidden;whiteSpace=wrap;html=1;fontFamily=Lucida Console;fontSize=15;" vertex="1" parent="BOQhzw1DH6TcYTrtDjCy-367">
          <mxGeometry x="160" width="160" height="30" as="geometry">
            <mxRectangle width="160" height="30" as="alternateBounds" />
          </mxGeometry>
        </mxCell>
        <mxCell id="BOQhzw1DH6TcYTrtDjCy-373" value="" style="shape=tableRow;horizontal=0;startSize=0;swimlaneHead=0;swimlaneBody=0;fillColor=none;collapsible=0;dropTarget=0;points=[[0,0.5],[1,0.5]];portConstraint=eastwest;top=0;left=0;right=0;bottom=0;fontFamily=Lucida Console;fontSize=15;align=center;" vertex="1" parent="BOQhzw1DH6TcYTrtDjCy-351">
          <mxGeometry y="210" width="320" height="30" as="geometry" />
        </mxCell>
        <mxCell id="BOQhzw1DH6TcYTrtDjCy-374" value="&lt;b&gt;varchar(255)&lt;/b&gt;" style="shape=partialRectangle;connectable=0;fillColor=none;top=0;left=0;bottom=0;right=0;editable=1;overflow=hidden;whiteSpace=wrap;html=1;fontFamily=Lucida Console;fontSize=15;align=center;" vertex="1" parent="BOQhzw1DH6TcYTrtDjCy-373">
          <mxGeometry width="160" height="30" as="geometry">
            <mxRectangle width="160" height="30" as="alternateBounds" />
          </mxGeometry>
        </mxCell>
        <mxCell id="BOQhzw1DH6TcYTrtDjCy-375" value="profile" style="shape=partialRectangle;connectable=0;fillColor=none;top=0;left=0;bottom=0;right=0;align=center;spacingLeft=6;overflow=hidden;whiteSpace=wrap;html=1;fontFamily=Lucida Console;fontSize=15;" vertex="1" parent="BOQhzw1DH6TcYTrtDjCy-373">
          <mxGeometry x="160" width="160" height="30" as="geometry">
            <mxRectangle width="160" height="30" as="alternateBounds" />
          </mxGeometry>
        </mxCell>
        <mxCell id="BOQhzw1DH6TcYTrtDjCy-444" value="Scholar" style="shape=table;startSize=30;container=1;collapsible=1;childLayout=tableLayout;fixedRows=1;rowLines=0;fontStyle=1;align=center;resizeLast=1;html=1;fontFamily=Lucida Console;fontSize=15;rounded=0;swimlaneLine=1;" vertex="1" parent="1">
          <mxGeometry x="1500" y="1080" width="320" height="360" as="geometry" />
        </mxCell>
        <mxCell id="BOQhzw1DH6TcYTrtDjCy-445" value="" style="shape=tableRow;horizontal=0;startSize=0;swimlaneHead=0;swimlaneBody=0;fillColor=none;collapsible=0;dropTarget=0;points=[[0,0.5],[1,0.5]];portConstraint=eastwest;top=0;left=0;right=0;bottom=1;fontFamily=Lucida Console;fontSize=15;align=center;" vertex="1" parent="BOQhzw1DH6TcYTrtDjCy-444">
          <mxGeometry y="30" width="320" height="30" as="geometry" />
        </mxCell>
        <mxCell id="BOQhzw1DH6TcYTrtDjCy-446" value="int" style="shape=partialRectangle;connectable=0;fillColor=none;top=0;left=0;bottom=0;right=0;fontStyle=1;overflow=hidden;whiteSpace=wrap;html=1;fontFamily=Lucida Console;fontSize=15;align=center;" vertex="1" parent="BOQhzw1DH6TcYTrtDjCy-445">
          <mxGeometry width="160" height="30" as="geometry">
            <mxRectangle width="160" height="30" as="alternateBounds" />
          </mxGeometry>
        </mxCell>
        <mxCell id="BOQhzw1DH6TcYTrtDjCy-447" value="id" style="shape=partialRectangle;connectable=0;fillColor=none;top=0;left=0;bottom=0;right=0;align=center;spacingLeft=6;fontStyle=5;overflow=hidden;whiteSpace=wrap;html=1;fontFamily=Lucida Console;fontSize=15;" vertex="1" parent="BOQhzw1DH6TcYTrtDjCy-445">
          <mxGeometry x="160" width="160" height="30" as="geometry">
            <mxRectangle width="160" height="30" as="alternateBounds" />
          </mxGeometry>
        </mxCell>
        <mxCell id="BOQhzw1DH6TcYTrtDjCy-448" value="" style="shape=tableRow;horizontal=0;startSize=0;swimlaneHead=0;swimlaneBody=0;fillColor=none;collapsible=0;dropTarget=0;points=[[0,0.5],[1,0.5]];portConstraint=eastwest;top=0;left=0;right=0;bottom=0;fontFamily=Lucida Console;fontSize=15;align=center;" vertex="1" parent="BOQhzw1DH6TcYTrtDjCy-444">
          <mxGeometry y="60" width="320" height="30" as="geometry" />
        </mxCell>
        <mxCell id="BOQhzw1DH6TcYTrtDjCy-449" value="&lt;b&gt;varchar(50)&lt;/b&gt;" style="shape=partialRectangle;connectable=0;fillColor=none;top=0;left=0;bottom=0;right=0;editable=1;overflow=hidden;whiteSpace=wrap;html=1;fontFamily=Lucida Console;fontSize=15;align=center;" vertex="1" parent="BOQhzw1DH6TcYTrtDjCy-448">
          <mxGeometry width="160" height="30" as="geometry">
            <mxRectangle width="160" height="30" as="alternateBounds" />
          </mxGeometry>
        </mxCell>
        <mxCell id="BOQhzw1DH6TcYTrtDjCy-450" value="surname" style="shape=partialRectangle;connectable=0;fillColor=none;top=0;left=0;bottom=0;right=0;align=center;spacingLeft=6;overflow=hidden;whiteSpace=wrap;html=1;fontFamily=Lucida Console;fontSize=15;" vertex="1" parent="BOQhzw1DH6TcYTrtDjCy-448">
          <mxGeometry x="160" width="160" height="30" as="geometry">
            <mxRectangle width="160" height="30" as="alternateBounds" />
          </mxGeometry>
        </mxCell>
        <mxCell id="BOQhzw1DH6TcYTrtDjCy-451" value="" style="shape=tableRow;horizontal=0;startSize=0;swimlaneHead=0;swimlaneBody=0;fillColor=none;collapsible=0;dropTarget=0;points=[[0,0.5],[1,0.5]];portConstraint=eastwest;top=0;left=0;right=0;bottom=0;fontFamily=Lucida Console;fontSize=15;align=center;" vertex="1" parent="BOQhzw1DH6TcYTrtDjCy-444">
          <mxGeometry y="90" width="320" height="30" as="geometry" />
        </mxCell>
        <mxCell id="BOQhzw1DH6TcYTrtDjCy-452" value="&lt;b&gt;varchar(50)&lt;/b&gt;" style="shape=partialRectangle;connectable=0;fillColor=none;top=0;left=0;bottom=0;right=0;editable=1;overflow=hidden;whiteSpace=wrap;html=1;fontStyle=1;fontFamily=Lucida Console;fontSize=15;align=center;" vertex="1" parent="BOQhzw1DH6TcYTrtDjCy-451">
          <mxGeometry width="160" height="30" as="geometry">
            <mxRectangle width="160" height="30" as="alternateBounds" />
          </mxGeometry>
        </mxCell>
        <mxCell id="BOQhzw1DH6TcYTrtDjCy-453" value="firstname" style="shape=partialRectangle;connectable=0;fillColor=none;top=0;left=0;bottom=0;right=0;align=center;spacingLeft=6;overflow=hidden;whiteSpace=wrap;html=1;fontFamily=Lucida Console;fontSize=15;" vertex="1" parent="BOQhzw1DH6TcYTrtDjCy-451">
          <mxGeometry x="160" width="160" height="30" as="geometry">
            <mxRectangle width="160" height="30" as="alternateBounds" />
          </mxGeometry>
        </mxCell>
        <mxCell id="BOQhzw1DH6TcYTrtDjCy-454" value="" style="shape=tableRow;horizontal=0;startSize=0;swimlaneHead=0;swimlaneBody=0;fillColor=none;collapsible=0;dropTarget=0;points=[[0,0.5],[1,0.5]];portConstraint=eastwest;top=0;left=0;right=0;bottom=0;fontFamily=Lucida Console;fontSize=15;align=center;" vertex="1" parent="BOQhzw1DH6TcYTrtDjCy-444">
          <mxGeometry y="120" width="320" height="30" as="geometry" />
        </mxCell>
        <mxCell id="BOQhzw1DH6TcYTrtDjCy-455" value="&lt;b&gt;varchar(50)&lt;/b&gt;" style="shape=partialRectangle;connectable=0;fillColor=none;top=0;left=0;bottom=0;right=0;editable=1;overflow=hidden;whiteSpace=wrap;html=1;fontFamily=Lucida Console;fontSize=15;align=center;" vertex="1" parent="BOQhzw1DH6TcYTrtDjCy-454">
          <mxGeometry width="160" height="30" as="geometry">
            <mxRectangle width="160" height="30" as="alternateBounds" />
          </mxGeometry>
        </mxCell>
        <mxCell id="BOQhzw1DH6TcYTrtDjCy-456" value="email" style="shape=partialRectangle;connectable=0;fillColor=none;top=0;left=0;bottom=0;right=0;align=center;spacingLeft=6;overflow=hidden;whiteSpace=wrap;html=1;fontFamily=Lucida Console;fontSize=15;" vertex="1" parent="BOQhzw1DH6TcYTrtDjCy-454">
          <mxGeometry x="160" width="160" height="30" as="geometry">
            <mxRectangle width="160" height="30" as="alternateBounds" />
          </mxGeometry>
        </mxCell>
        <mxCell id="BOQhzw1DH6TcYTrtDjCy-457" value="" style="shape=tableRow;horizontal=0;startSize=0;swimlaneHead=0;swimlaneBody=0;fillColor=none;collapsible=0;dropTarget=0;points=[[0,0.5],[1,0.5]];portConstraint=eastwest;top=0;left=0;right=0;bottom=0;fontFamily=Lucida Console;fontSize=15;align=center;" vertex="1" parent="BOQhzw1DH6TcYTrtDjCy-444">
          <mxGeometry y="150" width="320" height="30" as="geometry" />
        </mxCell>
        <mxCell id="BOQhzw1DH6TcYTrtDjCy-458" value="&lt;b&gt;varchar(255)&lt;/b&gt;" style="shape=partialRectangle;connectable=0;fillColor=none;top=0;left=0;bottom=0;right=0;editable=1;overflow=hidden;whiteSpace=wrap;html=1;fontFamily=Lucida Console;fontSize=15;align=center;" vertex="1" parent="BOQhzw1DH6TcYTrtDjCy-457">
          <mxGeometry width="160" height="30" as="geometry">
            <mxRectangle width="160" height="30" as="alternateBounds" />
          </mxGeometry>
        </mxCell>
        <mxCell id="BOQhzw1DH6TcYTrtDjCy-459" value="profile" style="shape=partialRectangle;connectable=0;fillColor=none;top=0;left=0;bottom=0;right=0;align=center;spacingLeft=6;overflow=hidden;whiteSpace=wrap;html=1;fontFamily=Lucida Console;fontSize=15;" vertex="1" parent="BOQhzw1DH6TcYTrtDjCy-457">
          <mxGeometry x="160" width="160" height="30" as="geometry">
            <mxRectangle width="160" height="30" as="alternateBounds" />
          </mxGeometry>
        </mxCell>
        <mxCell id="BOQhzw1DH6TcYTrtDjCy-460" value="" style="shape=tableRow;horizontal=0;startSize=0;swimlaneHead=0;swimlaneBody=0;fillColor=none;collapsible=0;dropTarget=0;points=[[0,0.5],[1,0.5]];portConstraint=eastwest;top=0;left=0;right=0;bottom=0;fontFamily=Lucida Console;fontSize=15;align=center;" vertex="1" parent="BOQhzw1DH6TcYTrtDjCy-444">
          <mxGeometry y="180" width="320" height="30" as="geometry" />
        </mxCell>
        <mxCell id="BOQhzw1DH6TcYTrtDjCy-461" value="&lt;b&gt;int&lt;/b&gt;" style="shape=partialRectangle;connectable=0;fillColor=none;top=0;left=0;bottom=0;right=0;editable=1;overflow=hidden;whiteSpace=wrap;html=1;fontFamily=Lucida Console;fontSize=15;align=center;" vertex="1" parent="BOQhzw1DH6TcYTrtDjCy-460">
          <mxGeometry width="160" height="30" as="geometry">
            <mxRectangle width="160" height="30" as="alternateBounds" />
          </mxGeometry>
        </mxCell>
        <mxCell id="BOQhzw1DH6TcYTrtDjCy-462" value="user_id" style="shape=partialRectangle;connectable=0;fillColor=none;top=0;left=0;bottom=0;right=0;align=center;spacingLeft=6;overflow=hidden;whiteSpace=wrap;html=1;fontFamily=Lucida Console;fontSize=15;" vertex="1" parent="BOQhzw1DH6TcYTrtDjCy-460">
          <mxGeometry x="160" width="160" height="30" as="geometry">
            <mxRectangle width="160" height="30" as="alternateBounds" />
          </mxGeometry>
        </mxCell>
        <mxCell id="BOQhzw1DH6TcYTrtDjCy-463" value="" style="shape=tableRow;horizontal=0;startSize=0;swimlaneHead=0;swimlaneBody=0;fillColor=none;collapsible=0;dropTarget=0;points=[[0,0.5],[1,0.5]];portConstraint=eastwest;top=0;left=0;right=0;bottom=0;fontFamily=Lucida Console;fontSize=15;align=center;" vertex="1" parent="BOQhzw1DH6TcYTrtDjCy-444">
          <mxGeometry y="210" width="320" height="30" as="geometry" />
        </mxCell>
        <mxCell id="BOQhzw1DH6TcYTrtDjCy-464" value="&lt;b&gt;int&lt;/b&gt;" style="shape=partialRectangle;connectable=0;fillColor=none;top=0;left=0;bottom=0;right=0;editable=1;overflow=hidden;whiteSpace=wrap;html=1;fontFamily=Lucida Console;fontSize=15;align=center;" vertex="1" parent="BOQhzw1DH6TcYTrtDjCy-463">
          <mxGeometry width="160" height="30" as="geometry">
            <mxRectangle width="160" height="30" as="alternateBounds" />
          </mxGeometry>
        </mxCell>
        <mxCell id="BOQhzw1DH6TcYTrtDjCy-465" value="dept_id" style="shape=partialRectangle;connectable=0;fillColor=none;top=0;left=0;bottom=0;right=0;align=center;spacingLeft=6;overflow=hidden;whiteSpace=wrap;html=1;fontFamily=Lucida Console;fontSize=15;" vertex="1" parent="BOQhzw1DH6TcYTrtDjCy-463">
          <mxGeometry x="160" width="160" height="30" as="geometry">
            <mxRectangle width="160" height="30" as="alternateBounds" />
          </mxGeometry>
        </mxCell>
        <mxCell id="BOQhzw1DH6TcYTrtDjCy-466" value="" style="shape=tableRow;horizontal=0;startSize=0;swimlaneHead=0;swimlaneBody=0;fillColor=none;collapsible=0;dropTarget=0;points=[[0,0.5],[1,0.5]];portConstraint=eastwest;top=0;left=0;right=0;bottom=0;fontFamily=Lucida Console;fontSize=15;align=center;" vertex="1" parent="BOQhzw1DH6TcYTrtDjCy-444">
          <mxGeometry y="240" width="320" height="30" as="geometry" />
        </mxCell>
        <mxCell id="BOQhzw1DH6TcYTrtDjCy-467" value="&lt;b&gt;int&lt;/b&gt;" style="shape=partialRectangle;connectable=0;fillColor=none;top=0;left=0;bottom=0;right=0;editable=1;overflow=hidden;whiteSpace=wrap;html=1;fontFamily=Lucida Console;fontSize=15;align=center;" vertex="1" parent="BOQhzw1DH6TcYTrtDjCy-466">
          <mxGeometry width="160" height="30" as="geometry">
            <mxRectangle width="160" height="30" as="alternateBounds" />
          </mxGeometry>
        </mxCell>
        <mxCell id="BOQhzw1DH6TcYTrtDjCy-468" value="sched_id" style="shape=partialRectangle;connectable=0;fillColor=none;top=0;left=0;bottom=0;right=0;align=center;spacingLeft=6;overflow=hidden;whiteSpace=wrap;html=1;fontFamily=Lucida Console;fontSize=15;" vertex="1" parent="BOQhzw1DH6TcYTrtDjCy-466">
          <mxGeometry x="160" width="160" height="30" as="geometry">
            <mxRectangle width="160" height="30" as="alternateBounds" />
          </mxGeometry>
        </mxCell>
        <mxCell id="BOQhzw1DH6TcYTrtDjCy-469" value="" style="shape=tableRow;horizontal=0;startSize=0;swimlaneHead=0;swimlaneBody=0;fillColor=none;collapsible=0;dropTarget=0;points=[[0,0.5],[1,0.5]];portConstraint=eastwest;top=0;left=0;right=0;bottom=0;fontFamily=Lucida Console;fontSize=15;align=center;" vertex="1" parent="BOQhzw1DH6TcYTrtDjCy-444">
          <mxGeometry y="270" width="320" height="30" as="geometry" />
        </mxCell>
        <mxCell id="BOQhzw1DH6TcYTrtDjCy-470" value="&lt;b&gt;int&lt;/b&gt;" style="shape=partialRectangle;connectable=0;fillColor=none;top=0;left=0;bottom=0;right=0;editable=1;overflow=hidden;whiteSpace=wrap;html=1;fontFamily=Lucida Console;fontSize=15;align=center;" vertex="1" parent="BOQhzw1DH6TcYTrtDjCy-469">
          <mxGeometry width="160" height="30" as="geometry">
            <mxRectangle width="160" height="30" as="alternateBounds" />
          </mxGeometry>
        </mxCell>
        <mxCell id="BOQhzw1DH6TcYTrtDjCy-471" value="church_id" style="shape=partialRectangle;connectable=0;fillColor=none;top=0;left=0;bottom=0;right=0;align=center;spacingLeft=6;overflow=hidden;whiteSpace=wrap;html=1;fontFamily=Lucida Console;fontSize=15;" vertex="1" parent="BOQhzw1DH6TcYTrtDjCy-469">
          <mxGeometry x="160" width="160" height="30" as="geometry">
            <mxRectangle width="160" height="30" as="alternateBounds" />
          </mxGeometry>
        </mxCell>
        <mxCell id="BOQhzw1DH6TcYTrtDjCy-472" value="" style="shape=tableRow;horizontal=0;startSize=0;swimlaneHead=0;swimlaneBody=0;fillColor=none;collapsible=0;dropTarget=0;points=[[0,0.5],[1,0.5]];portConstraint=eastwest;top=0;left=0;right=0;bottom=0;fontFamily=Lucida Console;fontSize=15;align=center;" vertex="1" parent="BOQhzw1DH6TcYTrtDjCy-444">
          <mxGeometry y="300" width="320" height="30" as="geometry" />
        </mxCell>
        <mxCell id="BOQhzw1DH6TcYTrtDjCy-473" value="&lt;b&gt;varchar(20)&lt;/b&gt;" style="shape=partialRectangle;connectable=0;fillColor=none;top=0;left=0;bottom=0;right=0;editable=1;overflow=hidden;whiteSpace=wrap;html=1;fontFamily=Lucida Console;fontSize=15;align=center;" vertex="1" parent="BOQhzw1DH6TcYTrtDjCy-472">
          <mxGeometry width="160" height="30" as="geometry">
            <mxRectangle width="160" height="30" as="alternateBounds" />
          </mxGeometry>
        </mxCell>
        <mxCell id="BOQhzw1DH6TcYTrtDjCy-474" value="status" style="shape=partialRectangle;connectable=0;fillColor=none;top=0;left=0;bottom=0;right=0;align=center;spacingLeft=6;overflow=hidden;whiteSpace=wrap;html=1;fontFamily=Lucida Console;fontSize=15;" vertex="1" parent="BOQhzw1DH6TcYTrtDjCy-472">
          <mxGeometry x="160" width="160" height="30" as="geometry">
            <mxRectangle width="160" height="30" as="alternateBounds" />
          </mxGeometry>
        </mxCell>
        <mxCell id="BOQhzw1DH6TcYTrtDjCy-553" value="" style="shape=tableRow;horizontal=0;startSize=0;swimlaneHead=0;swimlaneBody=0;fillColor=none;collapsible=0;dropTarget=0;points=[[0,0.5],[1,0.5]];portConstraint=eastwest;top=0;left=0;right=0;bottom=0;fontFamily=Lucida Console;fontSize=15;align=center;" vertex="1" parent="BOQhzw1DH6TcYTrtDjCy-444">
          <mxGeometry y="330" width="320" height="30" as="geometry" />
        </mxCell>
        <mxCell id="BOQhzw1DH6TcYTrtDjCy-554" value="&lt;b&gt;varchar(500)&lt;/b&gt;" style="shape=partialRectangle;connectable=0;fillColor=none;top=0;left=0;bottom=0;right=0;editable=1;overflow=hidden;whiteSpace=wrap;html=1;fontFamily=Lucida Console;fontSize=15;align=center;" vertex="1" parent="BOQhzw1DH6TcYTrtDjCy-553">
          <mxGeometry width="160" height="30" as="geometry">
            <mxRectangle width="160" height="30" as="alternateBounds" />
          </mxGeometry>
        </mxCell>
        <mxCell id="BOQhzw1DH6TcYTrtDjCy-555" value="qrcode" style="shape=partialRectangle;connectable=0;fillColor=none;top=0;left=0;bottom=0;right=0;align=center;spacingLeft=6;overflow=hidden;whiteSpace=wrap;html=1;fontFamily=Lucida Console;fontSize=15;" vertex="1" parent="BOQhzw1DH6TcYTrtDjCy-553">
          <mxGeometry x="160" width="160" height="30" as="geometry">
            <mxRectangle width="160" height="30" as="alternateBounds" />
          </mxGeometry>
        </mxCell>
        <mxCell id="BOQhzw1DH6TcYTrtDjCy-475" value="CertificateRecipient" style="shape=table;startSize=30;container=1;collapsible=1;childLayout=tableLayout;fixedRows=1;rowLines=0;fontStyle=1;align=center;resizeLast=1;html=1;fontFamily=Lucida Console;fontSize=15;rounded=0;swimlaneLine=1;" vertex="1" parent="1">
          <mxGeometry x="1860" y="1070" width="320" height="120" as="geometry" />
        </mxCell>
        <mxCell id="BOQhzw1DH6TcYTrtDjCy-476" value="" style="shape=tableRow;horizontal=0;startSize=0;swimlaneHead=0;swimlaneBody=0;fillColor=none;collapsible=0;dropTarget=0;points=[[0,0.5],[1,0.5]];portConstraint=eastwest;top=0;left=0;right=0;bottom=1;fontFamily=Lucida Console;fontSize=15;align=center;" vertex="1" parent="BOQhzw1DH6TcYTrtDjCy-475">
          <mxGeometry y="30" width="320" height="30" as="geometry" />
        </mxCell>
        <mxCell id="BOQhzw1DH6TcYTrtDjCy-477" value="int" style="shape=partialRectangle;connectable=0;fillColor=none;top=0;left=0;bottom=0;right=0;fontStyle=1;overflow=hidden;whiteSpace=wrap;html=1;fontFamily=Lucida Console;fontSize=15;align=center;" vertex="1" parent="BOQhzw1DH6TcYTrtDjCy-476">
          <mxGeometry width="160" height="30" as="geometry">
            <mxRectangle width="160" height="30" as="alternateBounds" />
          </mxGeometry>
        </mxCell>
        <mxCell id="BOQhzw1DH6TcYTrtDjCy-478" value="id" style="shape=partialRectangle;connectable=0;fillColor=none;top=0;left=0;bottom=0;right=0;align=center;spacingLeft=6;fontStyle=5;overflow=hidden;whiteSpace=wrap;html=1;fontFamily=Lucida Console;fontSize=15;" vertex="1" parent="BOQhzw1DH6TcYTrtDjCy-476">
          <mxGeometry x="160" width="160" height="30" as="geometry">
            <mxRectangle width="160" height="30" as="alternateBounds" />
          </mxGeometry>
        </mxCell>
        <mxCell id="BOQhzw1DH6TcYTrtDjCy-479" value="" style="shape=tableRow;horizontal=0;startSize=0;swimlaneHead=0;swimlaneBody=0;fillColor=none;collapsible=0;dropTarget=0;points=[[0,0.5],[1,0.5]];portConstraint=eastwest;top=0;left=0;right=0;bottom=0;fontFamily=Lucida Console;fontSize=15;align=center;" vertex="1" parent="BOQhzw1DH6TcYTrtDjCy-475">
          <mxGeometry y="60" width="320" height="30" as="geometry" />
        </mxCell>
        <mxCell id="BOQhzw1DH6TcYTrtDjCy-480" value="&lt;b&gt;int&lt;/b&gt;" style="shape=partialRectangle;connectable=0;fillColor=none;top=0;left=0;bottom=0;right=0;editable=1;overflow=hidden;whiteSpace=wrap;html=1;fontFamily=Lucida Console;fontSize=15;align=center;" vertex="1" parent="BOQhzw1DH6TcYTrtDjCy-479">
          <mxGeometry width="160" height="30" as="geometry">
            <mxRectangle width="160" height="30" as="alternateBounds" />
          </mxGeometry>
        </mxCell>
        <mxCell id="BOQhzw1DH6TcYTrtDjCy-481" value="user_id" style="shape=partialRectangle;connectable=0;fillColor=none;top=0;left=0;bottom=0;right=0;align=center;spacingLeft=6;overflow=hidden;whiteSpace=wrap;html=1;fontFamily=Lucida Console;fontSize=15;" vertex="1" parent="BOQhzw1DH6TcYTrtDjCy-479">
          <mxGeometry x="160" width="160" height="30" as="geometry">
            <mxRectangle width="160" height="30" as="alternateBounds" />
          </mxGeometry>
        </mxCell>
        <mxCell id="BOQhzw1DH6TcYTrtDjCy-482" value="" style="shape=tableRow;horizontal=0;startSize=0;swimlaneHead=0;swimlaneBody=0;fillColor=none;collapsible=0;dropTarget=0;points=[[0,0.5],[1,0.5]];portConstraint=eastwest;top=0;left=0;right=0;bottom=0;fontFamily=Lucida Console;fontSize=15;align=center;" vertex="1" parent="BOQhzw1DH6TcYTrtDjCy-475">
          <mxGeometry y="90" width="320" height="30" as="geometry" />
        </mxCell>
        <mxCell id="BOQhzw1DH6TcYTrtDjCy-483" value="&lt;b&gt;date&lt;/b&gt;" style="shape=partialRectangle;connectable=0;fillColor=none;top=0;left=0;bottom=0;right=0;editable=1;overflow=hidden;whiteSpace=wrap;html=1;fontStyle=1;fontFamily=Lucida Console;fontSize=15;align=center;" vertex="1" parent="BOQhzw1DH6TcYTrtDjCy-482">
          <mxGeometry width="160" height="30" as="geometry">
            <mxRectangle width="160" height="30" as="alternateBounds" />
          </mxGeometry>
        </mxCell>
        <mxCell id="BOQhzw1DH6TcYTrtDjCy-484" value="dateReceived" style="shape=partialRectangle;connectable=0;fillColor=none;top=0;left=0;bottom=0;right=0;align=center;spacingLeft=6;overflow=hidden;whiteSpace=wrap;html=1;fontFamily=Lucida Console;fontSize=15;" vertex="1" parent="BOQhzw1DH6TcYTrtDjCy-482">
          <mxGeometry x="160" width="160" height="30" as="geometry">
            <mxRectangle width="160" height="30" as="alternateBounds" />
          </mxGeometry>
        </mxCell>
        <mxCell id="BOQhzw1DH6TcYTrtDjCy-506" value="Church" style="shape=table;startSize=30;container=1;collapsible=1;childLayout=tableLayout;fixedRows=1;rowLines=0;fontStyle=1;align=center;resizeLast=1;html=1;fontFamily=Lucida Console;fontSize=15;rounded=0;swimlaneLine=1;" vertex="1" parent="1">
          <mxGeometry x="1860" y="400" width="320" height="270" as="geometry" />
        </mxCell>
        <mxCell id="BOQhzw1DH6TcYTrtDjCy-507" value="" style="shape=tableRow;horizontal=0;startSize=0;swimlaneHead=0;swimlaneBody=0;fillColor=none;collapsible=0;dropTarget=0;points=[[0,0.5],[1,0.5]];portConstraint=eastwest;top=0;left=0;right=0;bottom=1;fontFamily=Lucida Console;fontSize=15;align=center;" vertex="1" parent="BOQhzw1DH6TcYTrtDjCy-506">
          <mxGeometry y="30" width="320" height="30" as="geometry" />
        </mxCell>
        <mxCell id="BOQhzw1DH6TcYTrtDjCy-508" value="int" style="shape=partialRectangle;connectable=0;fillColor=none;top=0;left=0;bottom=0;right=0;fontStyle=1;overflow=hidden;whiteSpace=wrap;html=1;fontFamily=Lucida Console;fontSize=15;align=center;" vertex="1" parent="BOQhzw1DH6TcYTrtDjCy-507">
          <mxGeometry width="160" height="30" as="geometry">
            <mxRectangle width="160" height="30" as="alternateBounds" />
          </mxGeometry>
        </mxCell>
        <mxCell id="BOQhzw1DH6TcYTrtDjCy-509" value="id" style="shape=partialRectangle;connectable=0;fillColor=none;top=0;left=0;bottom=0;right=0;align=center;spacingLeft=6;fontStyle=5;overflow=hidden;whiteSpace=wrap;html=1;fontFamily=Lucida Console;fontSize=15;" vertex="1" parent="BOQhzw1DH6TcYTrtDjCy-507">
          <mxGeometry x="160" width="160" height="30" as="geometry">
            <mxRectangle width="160" height="30" as="alternateBounds" />
          </mxGeometry>
        </mxCell>
        <mxCell id="BOQhzw1DH6TcYTrtDjCy-510" value="" style="shape=tableRow;horizontal=0;startSize=0;swimlaneHead=0;swimlaneBody=0;fillColor=none;collapsible=0;dropTarget=0;points=[[0,0.5],[1,0.5]];portConstraint=eastwest;top=0;left=0;right=0;bottom=0;fontFamily=Lucida Console;fontSize=15;align=center;" vertex="1" parent="BOQhzw1DH6TcYTrtDjCy-506">
          <mxGeometry y="60" width="320" height="30" as="geometry" />
        </mxCell>
        <mxCell id="BOQhzw1DH6TcYTrtDjCy-511" value="&lt;b&gt;varchar(50)&lt;/b&gt;" style="shape=partialRectangle;connectable=0;fillColor=none;top=0;left=0;bottom=0;right=0;editable=1;overflow=hidden;whiteSpace=wrap;html=1;fontFamily=Lucida Console;fontSize=15;align=center;" vertex="1" parent="BOQhzw1DH6TcYTrtDjCy-510">
          <mxGeometry width="160" height="30" as="geometry">
            <mxRectangle width="160" height="30" as="alternateBounds" />
          </mxGeometry>
        </mxCell>
        <mxCell id="BOQhzw1DH6TcYTrtDjCy-512" value="surname" style="shape=partialRectangle;connectable=0;fillColor=none;top=0;left=0;bottom=0;right=0;align=center;spacingLeft=6;overflow=hidden;whiteSpace=wrap;html=1;fontFamily=Lucida Console;fontSize=15;" vertex="1" parent="BOQhzw1DH6TcYTrtDjCy-510">
          <mxGeometry x="160" width="160" height="30" as="geometry">
            <mxRectangle width="160" height="30" as="alternateBounds" />
          </mxGeometry>
        </mxCell>
        <mxCell id="BOQhzw1DH6TcYTrtDjCy-513" value="" style="shape=tableRow;horizontal=0;startSize=0;swimlaneHead=0;swimlaneBody=0;fillColor=none;collapsible=0;dropTarget=0;points=[[0,0.5],[1,0.5]];portConstraint=eastwest;top=0;left=0;right=0;bottom=0;fontFamily=Lucida Console;fontSize=15;align=center;" vertex="1" parent="BOQhzw1DH6TcYTrtDjCy-506">
          <mxGeometry y="90" width="320" height="30" as="geometry" />
        </mxCell>
        <mxCell id="BOQhzw1DH6TcYTrtDjCy-514" value="&lt;b&gt;varchar(50)&lt;/b&gt;" style="shape=partialRectangle;connectable=0;fillColor=none;top=0;left=0;bottom=0;right=0;editable=1;overflow=hidden;whiteSpace=wrap;html=1;fontStyle=1;fontFamily=Lucida Console;fontSize=15;align=center;" vertex="1" parent="BOQhzw1DH6TcYTrtDjCy-513">
          <mxGeometry width="160" height="30" as="geometry">
            <mxRectangle width="160" height="30" as="alternateBounds" />
          </mxGeometry>
        </mxCell>
        <mxCell id="BOQhzw1DH6TcYTrtDjCy-515" value="firstname" style="shape=partialRectangle;connectable=0;fillColor=none;top=0;left=0;bottom=0;right=0;align=center;spacingLeft=6;overflow=hidden;whiteSpace=wrap;html=1;fontFamily=Lucida Console;fontSize=15;" vertex="1" parent="BOQhzw1DH6TcYTrtDjCy-513">
          <mxGeometry x="160" width="160" height="30" as="geometry">
            <mxRectangle width="160" height="30" as="alternateBounds" />
          </mxGeometry>
        </mxCell>
        <mxCell id="BOQhzw1DH6TcYTrtDjCy-516" value="" style="shape=tableRow;horizontal=0;startSize=0;swimlaneHead=0;swimlaneBody=0;fillColor=none;collapsible=0;dropTarget=0;points=[[0,0.5],[1,0.5]];portConstraint=eastwest;top=0;left=0;right=0;bottom=0;fontFamily=Lucida Console;fontSize=15;align=center;" vertex="1" parent="BOQhzw1DH6TcYTrtDjCy-506">
          <mxGeometry y="120" width="320" height="30" as="geometry" />
        </mxCell>
        <mxCell id="BOQhzw1DH6TcYTrtDjCy-517" value="&lt;b&gt;varchar(50)&lt;/b&gt;" style="shape=partialRectangle;connectable=0;fillColor=none;top=0;left=0;bottom=0;right=0;editable=1;overflow=hidden;whiteSpace=wrap;html=1;fontFamily=Lucida Console;fontSize=15;align=center;" vertex="1" parent="BOQhzw1DH6TcYTrtDjCy-516">
          <mxGeometry width="160" height="30" as="geometry">
            <mxRectangle width="160" height="30" as="alternateBounds" />
          </mxGeometry>
        </mxCell>
        <mxCell id="BOQhzw1DH6TcYTrtDjCy-518" value="email" style="shape=partialRectangle;connectable=0;fillColor=none;top=0;left=0;bottom=0;right=0;align=center;spacingLeft=6;overflow=hidden;whiteSpace=wrap;html=1;fontFamily=Lucida Console;fontSize=15;" vertex="1" parent="BOQhzw1DH6TcYTrtDjCy-516">
          <mxGeometry x="160" width="160" height="30" as="geometry">
            <mxRectangle width="160" height="30" as="alternateBounds" />
          </mxGeometry>
        </mxCell>
        <mxCell id="BOQhzw1DH6TcYTrtDjCy-519" value="" style="shape=tableRow;horizontal=0;startSize=0;swimlaneHead=0;swimlaneBody=0;fillColor=none;collapsible=0;dropTarget=0;points=[[0,0.5],[1,0.5]];portConstraint=eastwest;top=0;left=0;right=0;bottom=0;fontFamily=Lucida Console;fontSize=15;align=center;" vertex="1" parent="BOQhzw1DH6TcYTrtDjCy-506">
          <mxGeometry y="150" width="320" height="30" as="geometry" />
        </mxCell>
        <mxCell id="BOQhzw1DH6TcYTrtDjCy-520" value="&lt;b&gt;int&lt;/b&gt;" style="shape=partialRectangle;connectable=0;fillColor=none;top=0;left=0;bottom=0;right=0;editable=1;overflow=hidden;whiteSpace=wrap;html=1;fontFamily=Lucida Console;fontSize=15;align=center;" vertex="1" parent="BOQhzw1DH6TcYTrtDjCy-519">
          <mxGeometry width="160" height="30" as="geometry">
            <mxRectangle width="160" height="30" as="alternateBounds" />
          </mxGeometry>
        </mxCell>
        <mxCell id="BOQhzw1DH6TcYTrtDjCy-521" value="user_id" style="shape=partialRectangle;connectable=0;fillColor=none;top=0;left=0;bottom=0;right=0;align=center;spacingLeft=6;overflow=hidden;whiteSpace=wrap;html=1;fontFamily=Lucida Console;fontSize=15;" vertex="1" parent="BOQhzw1DH6TcYTrtDjCy-519">
          <mxGeometry x="160" width="160" height="30" as="geometry">
            <mxRectangle width="160" height="30" as="alternateBounds" />
          </mxGeometry>
        </mxCell>
        <mxCell id="BOQhzw1DH6TcYTrtDjCy-522" value="" style="shape=tableRow;horizontal=0;startSize=0;swimlaneHead=0;swimlaneBody=0;fillColor=none;collapsible=0;dropTarget=0;points=[[0,0.5],[1,0.5]];portConstraint=eastwest;top=0;left=0;right=0;bottom=0;fontFamily=Lucida Console;fontSize=15;align=center;" vertex="1" parent="BOQhzw1DH6TcYTrtDjCy-506">
          <mxGeometry y="180" width="320" height="30" as="geometry" />
        </mxCell>
        <mxCell id="BOQhzw1DH6TcYTrtDjCy-523" value="&lt;b&gt;int&lt;/b&gt;" style="shape=partialRectangle;connectable=0;fillColor=none;top=0;left=0;bottom=0;right=0;editable=1;overflow=hidden;whiteSpace=wrap;html=1;fontFamily=Lucida Console;fontSize=15;align=center;" vertex="1" parent="BOQhzw1DH6TcYTrtDjCy-522">
          <mxGeometry width="160" height="30" as="geometry">
            <mxRectangle width="160" height="30" as="alternateBounds" />
          </mxGeometry>
        </mxCell>
        <mxCell id="BOQhzw1DH6TcYTrtDjCy-524" value="church_id" style="shape=partialRectangle;connectable=0;fillColor=none;top=0;left=0;bottom=0;right=0;align=center;spacingLeft=6;overflow=hidden;whiteSpace=wrap;html=1;fontFamily=Lucida Console;fontSize=15;" vertex="1" parent="BOQhzw1DH6TcYTrtDjCy-522">
          <mxGeometry x="160" width="160" height="30" as="geometry">
            <mxRectangle width="160" height="30" as="alternateBounds" />
          </mxGeometry>
        </mxCell>
        <mxCell id="BOQhzw1DH6TcYTrtDjCy-525" value="" style="shape=tableRow;horizontal=0;startSize=0;swimlaneHead=0;swimlaneBody=0;fillColor=none;collapsible=0;dropTarget=0;points=[[0,0.5],[1,0.5]];portConstraint=eastwest;top=0;left=0;right=0;bottom=0;fontFamily=Lucida Console;fontSize=15;align=center;" vertex="1" parent="BOQhzw1DH6TcYTrtDjCy-506">
          <mxGeometry y="210" width="320" height="30" as="geometry" />
        </mxCell>
        <mxCell id="BOQhzw1DH6TcYTrtDjCy-526" value="&lt;b&gt;int&lt;/b&gt;" style="shape=partialRectangle;connectable=0;fillColor=none;top=0;left=0;bottom=0;right=0;editable=1;overflow=hidden;whiteSpace=wrap;html=1;fontFamily=Lucida Console;fontSize=15;align=center;" vertex="1" parent="BOQhzw1DH6TcYTrtDjCy-525">
          <mxGeometry width="160" height="30" as="geometry">
            <mxRectangle width="160" height="30" as="alternateBounds" />
          </mxGeometry>
        </mxCell>
        <mxCell id="BOQhzw1DH6TcYTrtDjCy-527" value="acccreated" style="shape=partialRectangle;connectable=0;fillColor=none;top=0;left=0;bottom=0;right=0;align=center;spacingLeft=6;overflow=hidden;whiteSpace=wrap;html=1;fontFamily=Lucida Console;fontSize=15;" vertex="1" parent="BOQhzw1DH6TcYTrtDjCy-525">
          <mxGeometry x="160" width="160" height="30" as="geometry">
            <mxRectangle width="160" height="30" as="alternateBounds" />
          </mxGeometry>
        </mxCell>
        <mxCell id="BOQhzw1DH6TcYTrtDjCy-528" value="" style="shape=tableRow;horizontal=0;startSize=0;swimlaneHead=0;swimlaneBody=0;fillColor=none;collapsible=0;dropTarget=0;points=[[0,0.5],[1,0.5]];portConstraint=eastwest;top=0;left=0;right=0;bottom=0;fontFamily=Lucida Console;fontSize=15;align=center;" vertex="1" parent="BOQhzw1DH6TcYTrtDjCy-506">
          <mxGeometry y="240" width="320" height="30" as="geometry" />
        </mxCell>
        <mxCell id="BOQhzw1DH6TcYTrtDjCy-529" value="&lt;b&gt;varchar(255)&lt;/b&gt;" style="shape=partialRectangle;connectable=0;fillColor=none;top=0;left=0;bottom=0;right=0;editable=1;overflow=hidden;whiteSpace=wrap;html=1;fontFamily=Lucida Console;fontSize=15;align=center;" vertex="1" parent="BOQhzw1DH6TcYTrtDjCy-528">
          <mxGeometry width="160" height="30" as="geometry">
            <mxRectangle width="160" height="30" as="alternateBounds" />
          </mxGeometry>
        </mxCell>
        <mxCell id="BOQhzw1DH6TcYTrtDjCy-530" value="profile" style="shape=partialRectangle;connectable=0;fillColor=none;top=0;left=0;bottom=0;right=0;align=center;spacingLeft=6;overflow=hidden;whiteSpace=wrap;html=1;fontFamily=Lucida Console;fontSize=15;" vertex="1" parent="BOQhzw1DH6TcYTrtDjCy-528">
          <mxGeometry x="160" width="160" height="30" as="geometry">
            <mxRectangle width="160" height="30" as="alternateBounds" />
          </mxGeometry>
        </mxCell>
        <mxCell id="BOQhzw1DH6TcYTrtDjCy-531" value="ChurchPersonnel" style="shape=table;startSize=30;container=1;collapsible=1;childLayout=tableLayout;fixedRows=1;rowLines=0;fontStyle=1;align=center;resizeLast=1;html=1;fontFamily=Lucida Console;fontSize=15;rounded=0;swimlaneLine=1;" vertex="1" parent="1">
          <mxGeometry x="1860" y="760" width="320" height="240" as="geometry" />
        </mxCell>
        <mxCell id="BOQhzw1DH6TcYTrtDjCy-532" value="" style="shape=tableRow;horizontal=0;startSize=0;swimlaneHead=0;swimlaneBody=0;fillColor=none;collapsible=0;dropTarget=0;points=[[0,0.5],[1,0.5]];portConstraint=eastwest;top=0;left=0;right=0;bottom=1;fontFamily=Lucida Console;fontSize=15;align=center;" vertex="1" parent="BOQhzw1DH6TcYTrtDjCy-531">
          <mxGeometry y="30" width="320" height="30" as="geometry" />
        </mxCell>
        <mxCell id="BOQhzw1DH6TcYTrtDjCy-533" value="int" style="shape=partialRectangle;connectable=0;fillColor=none;top=0;left=0;bottom=0;right=0;fontStyle=1;overflow=hidden;whiteSpace=wrap;html=1;fontFamily=Lucida Console;fontSize=15;align=center;" vertex="1" parent="BOQhzw1DH6TcYTrtDjCy-532">
          <mxGeometry width="160" height="30" as="geometry">
            <mxRectangle width="160" height="30" as="alternateBounds" />
          </mxGeometry>
        </mxCell>
        <mxCell id="BOQhzw1DH6TcYTrtDjCy-534" value="id" style="shape=partialRectangle;connectable=0;fillColor=none;top=0;left=0;bottom=0;right=0;align=center;spacingLeft=6;fontStyle=5;overflow=hidden;whiteSpace=wrap;html=1;fontFamily=Lucida Console;fontSize=15;" vertex="1" parent="BOQhzw1DH6TcYTrtDjCy-532">
          <mxGeometry x="160" width="160" height="30" as="geometry">
            <mxRectangle width="160" height="30" as="alternateBounds" />
          </mxGeometry>
        </mxCell>
        <mxCell id="BOQhzw1DH6TcYTrtDjCy-535" value="" style="shape=tableRow;horizontal=0;startSize=0;swimlaneHead=0;swimlaneBody=0;fillColor=none;collapsible=0;dropTarget=0;points=[[0,0.5],[1,0.5]];portConstraint=eastwest;top=0;left=0;right=0;bottom=0;fontFamily=Lucida Console;fontSize=15;align=center;" vertex="1" parent="BOQhzw1DH6TcYTrtDjCy-531">
          <mxGeometry y="60" width="320" height="30" as="geometry" />
        </mxCell>
        <mxCell id="BOQhzw1DH6TcYTrtDjCy-536" value="&lt;b&gt;varchar(50)&lt;/b&gt;" style="shape=partialRectangle;connectable=0;fillColor=none;top=0;left=0;bottom=0;right=0;editable=1;overflow=hidden;whiteSpace=wrap;html=1;fontFamily=Lucida Console;fontSize=15;align=center;" vertex="1" parent="BOQhzw1DH6TcYTrtDjCy-535">
          <mxGeometry width="160" height="30" as="geometry">
            <mxRectangle width="160" height="30" as="alternateBounds" />
          </mxGeometry>
        </mxCell>
        <mxCell id="BOQhzw1DH6TcYTrtDjCy-537" value="surname" style="shape=partialRectangle;connectable=0;fillColor=none;top=0;left=0;bottom=0;right=0;align=center;spacingLeft=6;overflow=hidden;whiteSpace=wrap;html=1;fontFamily=Lucida Console;fontSize=15;" vertex="1" parent="BOQhzw1DH6TcYTrtDjCy-535">
          <mxGeometry x="160" width="160" height="30" as="geometry">
            <mxRectangle width="160" height="30" as="alternateBounds" />
          </mxGeometry>
        </mxCell>
        <mxCell id="BOQhzw1DH6TcYTrtDjCy-538" value="" style="shape=tableRow;horizontal=0;startSize=0;swimlaneHead=0;swimlaneBody=0;fillColor=none;collapsible=0;dropTarget=0;points=[[0,0.5],[1,0.5]];portConstraint=eastwest;top=0;left=0;right=0;bottom=0;fontFamily=Lucida Console;fontSize=15;align=center;" vertex="1" parent="BOQhzw1DH6TcYTrtDjCy-531">
          <mxGeometry y="90" width="320" height="30" as="geometry" />
        </mxCell>
        <mxCell id="BOQhzw1DH6TcYTrtDjCy-539" value="&lt;b&gt;varchar(50)&lt;/b&gt;" style="shape=partialRectangle;connectable=0;fillColor=none;top=0;left=0;bottom=0;right=0;editable=1;overflow=hidden;whiteSpace=wrap;html=1;fontStyle=1;fontFamily=Lucida Console;fontSize=15;align=center;" vertex="1" parent="BOQhzw1DH6TcYTrtDjCy-538">
          <mxGeometry width="160" height="30" as="geometry">
            <mxRectangle width="160" height="30" as="alternateBounds" />
          </mxGeometry>
        </mxCell>
        <mxCell id="BOQhzw1DH6TcYTrtDjCy-540" value="firstname" style="shape=partialRectangle;connectable=0;fillColor=none;top=0;left=0;bottom=0;right=0;align=center;spacingLeft=6;overflow=hidden;whiteSpace=wrap;html=1;fontFamily=Lucida Console;fontSize=15;" vertex="1" parent="BOQhzw1DH6TcYTrtDjCy-538">
          <mxGeometry x="160" width="160" height="30" as="geometry">
            <mxRectangle width="160" height="30" as="alternateBounds" />
          </mxGeometry>
        </mxCell>
        <mxCell id="BOQhzw1DH6TcYTrtDjCy-541" value="" style="shape=tableRow;horizontal=0;startSize=0;swimlaneHead=0;swimlaneBody=0;fillColor=none;collapsible=0;dropTarget=0;points=[[0,0.5],[1,0.5]];portConstraint=eastwest;top=0;left=0;right=0;bottom=0;fontFamily=Lucida Console;fontSize=15;align=center;" vertex="1" parent="BOQhzw1DH6TcYTrtDjCy-531">
          <mxGeometry y="120" width="320" height="30" as="geometry" />
        </mxCell>
        <mxCell id="BOQhzw1DH6TcYTrtDjCy-542" value="&lt;b&gt;varchar(50)&lt;/b&gt;" style="shape=partialRectangle;connectable=0;fillColor=none;top=0;left=0;bottom=0;right=0;editable=1;overflow=hidden;whiteSpace=wrap;html=1;fontFamily=Lucida Console;fontSize=15;align=center;" vertex="1" parent="BOQhzw1DH6TcYTrtDjCy-541">
          <mxGeometry width="160" height="30" as="geometry">
            <mxRectangle width="160" height="30" as="alternateBounds" />
          </mxGeometry>
        </mxCell>
        <mxCell id="BOQhzw1DH6TcYTrtDjCy-543" value="email" style="shape=partialRectangle;connectable=0;fillColor=none;top=0;left=0;bottom=0;right=0;align=center;spacingLeft=6;overflow=hidden;whiteSpace=wrap;html=1;fontFamily=Lucida Console;fontSize=15;" vertex="1" parent="BOQhzw1DH6TcYTrtDjCy-541">
          <mxGeometry x="160" width="160" height="30" as="geometry">
            <mxRectangle width="160" height="30" as="alternateBounds" />
          </mxGeometry>
        </mxCell>
        <mxCell id="BOQhzw1DH6TcYTrtDjCy-544" value="" style="shape=tableRow;horizontal=0;startSize=0;swimlaneHead=0;swimlaneBody=0;fillColor=none;collapsible=0;dropTarget=0;points=[[0,0.5],[1,0.5]];portConstraint=eastwest;top=0;left=0;right=0;bottom=0;fontFamily=Lucida Console;fontSize=15;align=center;" vertex="1" parent="BOQhzw1DH6TcYTrtDjCy-531">
          <mxGeometry y="150" width="320" height="30" as="geometry" />
        </mxCell>
        <mxCell id="BOQhzw1DH6TcYTrtDjCy-545" value="&lt;b&gt;int&lt;/b&gt;" style="shape=partialRectangle;connectable=0;fillColor=none;top=0;left=0;bottom=0;right=0;editable=1;overflow=hidden;whiteSpace=wrap;html=1;fontFamily=Lucida Console;fontSize=15;align=center;" vertex="1" parent="BOQhzw1DH6TcYTrtDjCy-544">
          <mxGeometry width="160" height="30" as="geometry">
            <mxRectangle width="160" height="30" as="alternateBounds" />
          </mxGeometry>
        </mxCell>
        <mxCell id="BOQhzw1DH6TcYTrtDjCy-546" value="user_id" style="shape=partialRectangle;connectable=0;fillColor=none;top=0;left=0;bottom=0;right=0;align=center;spacingLeft=6;overflow=hidden;whiteSpace=wrap;html=1;fontFamily=Lucida Console;fontSize=15;" vertex="1" parent="BOQhzw1DH6TcYTrtDjCy-544">
          <mxGeometry x="160" width="160" height="30" as="geometry">
            <mxRectangle width="160" height="30" as="alternateBounds" />
          </mxGeometry>
        </mxCell>
        <mxCell id="BOQhzw1DH6TcYTrtDjCy-547" value="" style="shape=tableRow;horizontal=0;startSize=0;swimlaneHead=0;swimlaneBody=0;fillColor=none;collapsible=0;dropTarget=0;points=[[0,0.5],[1,0.5]];portConstraint=eastwest;top=0;left=0;right=0;bottom=0;fontFamily=Lucida Console;fontSize=15;align=center;" vertex="1" parent="BOQhzw1DH6TcYTrtDjCy-531">
          <mxGeometry y="180" width="320" height="30" as="geometry" />
        </mxCell>
        <mxCell id="BOQhzw1DH6TcYTrtDjCy-548" value="&lt;b&gt;int&lt;/b&gt;" style="shape=partialRectangle;connectable=0;fillColor=none;top=0;left=0;bottom=0;right=0;editable=1;overflow=hidden;whiteSpace=wrap;html=1;fontFamily=Lucida Console;fontSize=15;align=center;" vertex="1" parent="BOQhzw1DH6TcYTrtDjCy-547">
          <mxGeometry width="160" height="30" as="geometry">
            <mxRectangle width="160" height="30" as="alternateBounds" />
          </mxGeometry>
        </mxCell>
        <mxCell id="BOQhzw1DH6TcYTrtDjCy-549" value="church_id" style="shape=partialRectangle;connectable=0;fillColor=none;top=0;left=0;bottom=0;right=0;align=center;spacingLeft=6;overflow=hidden;whiteSpace=wrap;html=1;fontFamily=Lucida Console;fontSize=15;" vertex="1" parent="BOQhzw1DH6TcYTrtDjCy-547">
          <mxGeometry x="160" width="160" height="30" as="geometry">
            <mxRectangle width="160" height="30" as="alternateBounds" />
          </mxGeometry>
        </mxCell>
        <mxCell id="BOQhzw1DH6TcYTrtDjCy-550" value="" style="shape=tableRow;horizontal=0;startSize=0;swimlaneHead=0;swimlaneBody=0;fillColor=none;collapsible=0;dropTarget=0;points=[[0,0.5],[1,0.5]];portConstraint=eastwest;top=0;left=0;right=0;bottom=0;fontFamily=Lucida Console;fontSize=15;align=center;" vertex="1" parent="BOQhzw1DH6TcYTrtDjCy-531">
          <mxGeometry y="210" width="320" height="30" as="geometry" />
        </mxCell>
        <mxCell id="BOQhzw1DH6TcYTrtDjCy-551" value="&lt;b&gt;varchar(255)&lt;/b&gt;" style="shape=partialRectangle;connectable=0;fillColor=none;top=0;left=0;bottom=0;right=0;editable=1;overflow=hidden;whiteSpace=wrap;html=1;fontFamily=Lucida Console;fontSize=15;align=center;" vertex="1" parent="BOQhzw1DH6TcYTrtDjCy-550">
          <mxGeometry width="160" height="30" as="geometry">
            <mxRectangle width="160" height="30" as="alternateBounds" />
          </mxGeometry>
        </mxCell>
        <mxCell id="BOQhzw1DH6TcYTrtDjCy-552" value="profile" style="shape=partialRectangle;connectable=0;fillColor=none;top=0;left=0;bottom=0;right=0;align=center;spacingLeft=6;overflow=hidden;whiteSpace=wrap;html=1;fontFamily=Lucida Console;fontSize=15;" vertex="1" parent="BOQhzw1DH6TcYTrtDjCy-550">
          <mxGeometry x="160" width="160" height="30" as="geometry">
            <mxRectangle width="160" height="30" as="alternateBounds" />
          </mxGeometry>
        </mxCell>
        <mxCell id="BOQhzw1DH6TcYTrtDjCy-556" style="edgeStyle=orthogonalEdgeStyle;rounded=0;orthogonalLoop=1;jettySize=auto;html=1;startArrow=ERzeroToMany;startFill=0;endArrow=ERmandOne;endFill=0;endSize=15;startSize=15;entryX=0.501;entryY=0.974;entryDx=0;entryDy=0;entryPerimeter=0;" edge="1" parent="1" target="BOQhzw1DH6TcYTrtDjCy-224">
          <mxGeometry relative="1" as="geometry">
            <mxPoint x="1660" y="1080" as="sourcePoint" />
            <mxPoint x="1660" y="860" as="targetPoint" />
            <Array as="points">
              <mxPoint x="1660" y="1030" />
              <mxPoint x="1660" y="1030" />
            </Array>
          </mxGeometry>
        </mxCell>
        <mxCell id="BOQhzw1DH6TcYTrtDjCy-560" style="edgeStyle=orthogonalEdgeStyle;rounded=0;orthogonalLoop=1;jettySize=auto;html=1;startArrow=ERzeroToMany;startFill=0;endArrow=ERmandOne;endFill=0;endSize=15;startSize=15;exitX=1.003;exitY=0.315;exitDx=0;exitDy=0;exitPerimeter=0;entryX=0.284;entryY=0.001;entryDx=0;entryDy=0;entryPerimeter=0;" edge="1" parent="1" source="BOQhzw1DH6TcYTrtDjCy-259" target="BOQhzw1DH6TcYTrtDjCy-208">
          <mxGeometry relative="1" as="geometry">
            <mxPoint x="1470" y="440" as="sourcePoint" />
            <mxPoint x="1600" y="600" as="targetPoint" />
            <Array as="points">
              <mxPoint x="1600" y="440" />
              <mxPoint x="1600" y="640" />
            </Array>
          </mxGeometry>
        </mxCell>
        <mxCell id="BOQhzw1DH6TcYTrtDjCy-557" style="edgeStyle=orthogonalEdgeStyle;rounded=0;orthogonalLoop=1;jettySize=auto;html=1;startArrow=ERzeroToMany;startFill=0;endArrow=ERmandOne;endFill=0;endSize=15;startSize=15;exitX=1.001;exitY=0.003;exitDx=0;exitDy=0;exitPerimeter=0;" edge="1" parent="1" source="BOQhzw1DH6TcYTrtDjCy-237">
          <mxGeometry relative="1" as="geometry">
            <mxPoint x="1480" y="160" as="sourcePoint" />
            <mxPoint x="1640" y="640" as="targetPoint" />
            <Array as="points">
              <mxPoint x="1640" y="160" />
            </Array>
          </mxGeometry>
        </mxCell>
        <mxCell id="BOQhzw1DH6TcYTrtDjCy-558" style="edgeStyle=orthogonalEdgeStyle;rounded=0;orthogonalLoop=1;jettySize=auto;html=1;startArrow=ERzeroToMany;startFill=0;endArrow=ERmandOne;endFill=0;endSize=15;startSize=15;exitX=-0.004;exitY=0.661;exitDx=0;exitDy=0;exitPerimeter=0;" edge="1" parent="1" source="BOQhzw1DH6TcYTrtDjCy-296">
          <mxGeometry relative="1" as="geometry">
            <mxPoint x="1830" y="160" as="sourcePoint" />
            <mxPoint x="1680" y="640" as="targetPoint" />
            <Array as="points">
              <mxPoint x="1680" y="160" />
            </Array>
          </mxGeometry>
        </mxCell>
        <mxCell id="BOQhzw1DH6TcYTrtDjCy-559" style="edgeStyle=orthogonalEdgeStyle;rounded=0;orthogonalLoop=1;jettySize=auto;html=1;startArrow=ERzeroToMany;startFill=0;endArrow=ERmandOne;endFill=0;endSize=15;startSize=15;exitX=0.001;exitY=0.317;exitDx=0;exitDy=0;exitPerimeter=0;" edge="1" parent="1" source="BOQhzw1DH6TcYTrtDjCy-507">
          <mxGeometry relative="1" as="geometry">
            <mxPoint x="1850" y="440" as="sourcePoint" />
            <mxPoint x="1720" y="640" as="targetPoint" />
            <Array as="points">
              <mxPoint x="1720" y="439" />
            </Array>
          </mxGeometry>
        </mxCell>
        <mxCell id="BOQhzw1DH6TcYTrtDjCy-561" style="edgeStyle=orthogonalEdgeStyle;rounded=0;orthogonalLoop=1;jettySize=auto;html=1;startArrow=ERzeroToMany;startFill=0;endArrow=ERmandOne;endFill=0;endSize=15;startSize=15;entryX=-0.005;entryY=0.672;entryDx=0;entryDy=0;entryPerimeter=0;" edge="1" parent="1" target="BOQhzw1DH6TcYTrtDjCy-212">
          <mxGeometry relative="1" as="geometry">
            <mxPoint x="1300" y="760" as="sourcePoint" />
            <mxPoint x="1510" y="720" as="targetPoint" />
            <Array as="points">
              <mxPoint x="1300" y="720" />
              <mxPoint x="1510" y="720" />
            </Array>
          </mxGeometry>
        </mxCell>
        <mxCell id="BOQhzw1DH6TcYTrtDjCy-562" style="edgeStyle=orthogonalEdgeStyle;rounded=0;orthogonalLoop=1;jettySize=auto;html=1;startArrow=ERzeroToMany;startFill=0;endArrow=ERmandOne;endFill=0;endSize=15;startSize=15;entryX=1;entryY=0.655;entryDx=0;entryDy=0;entryPerimeter=0;" edge="1" parent="1" target="BOQhzw1DH6TcYTrtDjCy-212">
          <mxGeometry relative="1" as="geometry">
            <mxPoint x="2020" y="760" as="sourcePoint" />
            <mxPoint x="1810" y="720" as="targetPoint" />
            <Array as="points">
              <mxPoint x="2020" y="720" />
            </Array>
          </mxGeometry>
        </mxCell>
        <mxCell id="BOQhzw1DH6TcYTrtDjCy-563" style="edgeStyle=orthogonalEdgeStyle;rounded=0;orthogonalLoop=1;jettySize=auto;html=1;startArrow=ERzeroToMany;startFill=0;endArrow=ERmandOne;endFill=0;endSize=15;startSize=15;entryX=0.286;entryY=1.01;entryDx=0;entryDy=0;entryPerimeter=0;" edge="1" parent="1" target="BOQhzw1DH6TcYTrtDjCy-224">
          <mxGeometry relative="1" as="geometry">
            <mxPoint x="1300" y="1080" as="sourcePoint" />
            <mxPoint x="1600" y="860" as="targetPoint" />
            <Array as="points">
              <mxPoint x="1300" y="1020" />
              <mxPoint x="1600" y="1020" />
            </Array>
          </mxGeometry>
        </mxCell>
        <mxCell id="BOQhzw1DH6TcYTrtDjCy-564" style="edgeStyle=orthogonalEdgeStyle;rounded=0;orthogonalLoop=1;jettySize=auto;html=1;startArrow=ERzeroToMany;startFill=0;endArrow=ERmandOne;endFill=0;endSize=15;startSize=15;entryX=0.713;entryY=0.992;entryDx=0;entryDy=0;entryPerimeter=0;" edge="1" parent="1" target="BOQhzw1DH6TcYTrtDjCy-224">
          <mxGeometry relative="1" as="geometry">
            <mxPoint x="2020" y="1070" as="sourcePoint" />
            <mxPoint x="1720" y="860" as="targetPoint" />
            <Array as="points">
              <mxPoint x="2020" y="1020" />
              <mxPoint x="1720" y="1020" />
            </Array>
          </mxGeometry>
        </mxCell>
      </root>
    </mxGraphModel>
  </diagram>
</mxfile>
